<?xml version="1.0" encoding="UTF-8"?>
<!DOCTYPE svg PUBLIC "-//W3C//DTD SVG 1.1//EN" "http://www.w3.org/Graphics/SVG/1.1/DTD/svg11.dtd">
<!-- Creator: CorelDRAW X6 -->
<svg xmlns="http://www.w3.org/2000/svg" xml:space="preserve" width="2557px" height="1698px" version="1.1" style="shape-rendering:geometricPrecision; text-rendering:geometricPrecision; image-rendering:optimizeQuality; fill-rule:evenodd; clip-rule:evenodd"
viewBox="0 0 905 601"
 xmlns:xlink="http://www.w3.org/1999/xlink">
 <defs>
  <style type="text/css">
   <![CDATA[
    .fil9 {fill:none}
    .fil7 {fill:#349937}
    .fil8 {fill:#7D6C51}
    .fil0 {fill:#717D34;fill-rule:nonzero}
    .fil17 {fill:#78151A;fill-rule:nonzero}
    .fil10 {fill:#7C6643;fill-rule:nonzero}
    .fil3 {fill:#BC5727;fill-rule:nonzero}
    .fil16 {fill:#BD6069;fill-rule:nonzero}
    .fil13 {fill:#CE2025;fill-rule:nonzero}
    .fil11 {fill:#E52624;fill-rule:nonzero}
    .fil12 {fill:#EE4442;fill-rule:nonzero}
    .fil15 {fill:#F04342;fill-rule:nonzero}
    .fil6 {fill:#7D6C51;fill-rule:nonzero}
    .fil14 {fill:url(#id0)}
    .fil5 {fill:url(#id1)}
    .fil2 {fill:url(#id2)}
    .fil4 {fill:url(#id3)}
    .fil1 {fill:url(#id4)}
   ]]>
  </style>
  <linearGradient id="id0" gradientUnits="userSpaceOnUse" x1="695.519" y1="159.279" x2="787.99" y2="166.764">
   <stop offset="0" style="stop-color:#F2A07C"/>
   <stop offset="0.501961" style="stop-color:#F7D4D6"/>
   <stop offset="1" style="stop-color:#F48E8E"/>
  </linearGradient>
  <linearGradient id="id1" gradientUnits="userSpaceOnUse" x1="560.827" y1="56.0887" x2="614.379" y2="83.5473">
   <stop offset="0" style="stop-color:#979A35"/>
   <stop offset="1" style="stop-color:#349937"/>
  </linearGradient>
  <linearGradient id="id2" gradientUnits="userSpaceOnUse" xlink:href="#id1" x1="637.636" y1="12.2393" x2="643.064" y2="83.4449">
  </linearGradient>
  <linearGradient id="id3" gradientUnits="userSpaceOnUse" xlink:href="#id1" x1="559.041" y1="61.6165" x2="613.064" y2="85.4624">
  </linearGradient>
  <linearGradient id="id4" gradientUnits="userSpaceOnUse" xlink:href="#id1" x1="627.64" y1="10.715" x2="640.777" y2="76.7355">
  </linearGradient>
 </defs>
 <g id="_0">
  <metadata id="CorelCorpID_0Corel-Layer"/>
  <g id="_827867360">
   <path class="fil0" d="M644 148c7,-26 -3,-50 -27,-68 -11,-8 -21,-12 -30,-11l0 7c8,-1 16,3 25,10 12,9 20,19 23,30 3,10 4,21 1,32 -12,45 -74,89 -117,95l1 7c23,-3 50,-16 74,-34 12,-9 23,-20 31,-30 9,-12 15,-24 18,-35 0,0 0,-1 0,-1z"/>
   <path class="fil0" d="M660 146c3,-12 0,-26 -4,-38l0 -1c-4,-14 -6,-28 0,-38l-6 -4c-4,6 -5,13 -5,22 0,8 2,16 4,22l0 1c4,13 7,27 2,38 -3,8 -10,14 -19,15l1 7c10,-2 19,-10 23,-19 1,-2 1,-4 2,-5z"/>
   <path class="fil0" d="M629 1c-2,0 -4,0 -6,1 -1,0 -2,1 -3,2 -1,1 -2,1 -2,2 -1,1 -1,1 -2,2 -1,1 -1,2 -2,2 -1,2 -2,3 -3,5 -1,4 -2,7 -3,11 0,4 0,8 0,11 1,8 3,15 6,22 0,1 1,2 1,3 0,1 1,2 1,3 1,2 2,3 3,5 2,3 4,6 7,9 -2,-3 -5,-6 -7,-9 -1,-2 -2,-3 -3,-5 0,-1 -1,-2 -1,-3 0,-1 -1,-2 -1,-3 -3,-7 -5,-14 -6,-22 0,-4 0,-8 0,-11 0,-4 1,-7 3,-11 1,-2 2,-3 3,-5 0,-1 1,-2 2,-2 1,-1 1,-1 2,-2 1,-1 1,-1 2,-2 1,-1 2,-1 2,-1 2,-1 3,-1 5,-1l0 -1z"/>
   <path class="fil1" d="M651 88c34,-9 19,-88 -18,-88 -15,0 -22,17 -23,30 -1,23 17,64 41,57z"/>
   <path class="fil2" d="M651 78c13,-31 -5,-80 -22,-76 -12,3 -6,52 14,78l7 -2z"/>
   <path class="fil0" d="M651 78c1,-2 1,-3 2,-5 1,-2 1,-3 2,-5 0,-2 1,-4 1,-5 0,-2 0,-4 1,-5 0,-2 0,-4 0,-5 0,-2 0,-4 0,-5 0,-4 -1,-7 -1,-11 0,-2 -1,-4 -1,-5 0,-2 -1,-4 -2,-5 -1,-3 -3,-7 -4,-10 -1,-2 -2,-3 -3,-5 -1,-2 -2,-3 -4,-4 -1,-1 -3,-3 -5,-4 -1,-1 -2,-1 -3,-1 0,0 0,0 -1,0l-1 0 -1 0c0,0 -1,0 -1,0 0,0 -1,0 -1,0l0 0 0 0c0,0 -1,0 -1,0l0 0c0,0 0,0 0,0 -1,0 -2,1 -3,2 -1,1 -1,2 -2,3 0,1 -1,2 -1,3 0,2 -1,4 -1,6 0,2 0,4 0,6 0,4 0,7 1,11 1,4 1,7 2,11 2,7 4,14 7,20 1,2 2,3 2,5 1,2 2,3 3,5 1,2 2,3 3,5 1,1 2,3 3,4l0 0c-4,-6 -8,-12 -11,-19 -3,-7 -5,-13 -7,-20 -1,-3 -2,-7 -2,-11 -1,-4 -1,-7 -1,-11 0,-2 0,-4 0,-5 0,-2 0,-4 1,-5 0,-1 1,-2 1,-3 0,-1 1,-2 1,-2 1,-1 1,-1 2,-2 0,0 0,0 0,0l0 0c0,0 0,0 1,0l0 0 0 0c0,0 0,0 1,0 0,0 0,0 1,0l1 0 1 0c0,0 0,0 1,0 1,0 2,1 2,1 2,1 3,2 4,3 2,3 4,6 6,9 2,3 3,6 4,10 1,3 2,7 3,10 1,7 2,14 2,21 0,7 -2,14 -5,21l0 0z"/>
   <path class="fil3" d="M626 45c-1,-3 -2,-7 -2,-10 -1,-4 -1,-7 -1,-11 0,-4 0,-7 0,-11 0,-2 1,-4 1,-5 1,-2 1,-3 2,-5l0 -1 -1 0c-2,0 -3,1 -4,3 -1,1 -2,2 -3,4 -2,3 -3,6 -5,9 -1,2 -1,3 -1,5 0,2 -1,3 -1,5 0,2 0,3 0,5 0,2 0,3 0,5l0 0c0,-2 0,-3 0,-5 0,-2 0,-3 0,-5 0,-3 1,-7 3,-10 1,-3 3,-6 5,-9 1,-1 2,-3 3,-4 1,-1 3,-2 4,-2l0 0c-1,2 -2,3 -2,5 -1,2 -1,3 -1,5 0,4 0,7 0,11 0,4 1,7 1,11 1,4 2,7 3,10l0 0z"/>
   <path class="fil0" d="M627 3c1,-1 3,-2 5,-2 1,0 2,0 3,0 1,0 2,0 3,0 2,0 4,1 5,2 2,1 3,2 5,3 3,2 6,5 8,7 2,3 5,6 6,9 4,7 6,14 7,21 1,7 1,15 0,22 1,-7 2,-15 1,-22 -1,-7 -3,-15 -7,-21 -2,-3 -4,-7 -6,-9 -2,-3 -5,-6 -8,-8 -2,-1 -3,-2 -5,-3 -2,-1 -4,-1 -5,-2 -1,0 -2,0 -3,0 -1,0 -2,0 -3,0 -2,0 -4,1 -5,2l1 1z"/>
   <path class="fil0" d="M554 55c-1,1 -2,3 -2,4 0,1 0,2 0,2 0,1 0,2 0,2 0,1 0,2 0,2 0,1 0,2 1,2 1,1 1,3 2,4 2,3 4,5 6,7 2,2 5,4 7,6 5,3 11,6 17,7 1,0 1,0 2,1 1,0 2,0 2,0 2,0 3,0 5,1 3,0 6,0 9,0 -3,0 -6,0 -9,0 -2,0 -3,0 -5,-1 -1,0 -2,0 -2,0 -1,0 -1,0 -2,-1 -6,-2 -12,-4 -17,-7 -3,-2 -5,-4 -7,-6 -2,-2 -4,-5 -5,-7 -1,-1 -1,-3 -2,-4 0,-1 0,-1 -1,-2 0,-1 0,-1 0,-2 0,-1 0,-1 0,-2 0,-1 0,-1 0,-2 0,-1 1,-3 2,-4l-1 -1z"/>
   <path class="fil4" d="M619 85c11,-26 -46,-56 -64,-33 -7,9 -1,22 7,30 14,12 49,21 56,3z"/>
   <path class="fil5" d="M613 80c-12,-24 -53,-37 -59,-25 -4,9 29,30 56,30l3 -5z"/>
   <path class="fil0" d="M613 80c-1,-1 -1,-3 -2,-4 -1,-1 -2,-2 -2,-4 -2,-2 -4,-4 -6,-7 -1,-1 -2,-2 -3,-3 -1,-1 -2,-2 -4,-3 -2,-2 -5,-3 -8,-5 -1,-1 -3,-1 -4,-2 -1,-1 -3,-1 -4,-2 -3,-1 -6,-2 -9,-2 -1,0 -3,-1 -4,-1 -2,0 -3,0 -5,0 -2,0 -3,0 -5,1 -1,0 -2,1 -2,1 -1,0 -1,1 -2,2 0,0 0,0 0,1l0 0 0 0c0,0 0,0 0,1l0 0c0,0 0,0 0,0 0,1 0,2 0,3 0,1 1,2 1,2 0,1 1,1 1,2 1,1 2,2 3,3 1,1 2,2 3,3 2,2 5,3 7,5 3,1 5,3 8,4 5,2 11,4 17,6 3,1 6,1 9,1 1,0 3,0 4,0 1,0 3,0 4,0l0 0c-6,0 -12,-1 -17,-3 -6,-1 -11,-4 -16,-6 -3,-1 -5,-3 -8,-4 -2,-1 -5,-3 -7,-5 -2,-2 -4,-4 -6,-6 -1,-1 -2,-2 -2,-4 0,-1 0,-1 0,-2 0,0 0,0 0,0l0 0c0,0 0,0 0,0l0 0 0 0c0,0 0,0 0,0 0,-1 1,-1 2,-1 1,0 1,-1 2,-1 1,-1 3,-1 4,-1 3,0 6,0 9,1 3,1 6,1 8,2 3,1 5,2 8,3 5,3 10,6 14,10 4,4 8,8 11,13l0 0z"/>
   <path class="fil0" d="M554 57c0,-1 0,-3 1,-4 0,-1 1,-1 1,-2 0,-1 1,-1 2,-2 1,-1 2,-2 4,-2 1,-1 3,-1 4,-2 3,-1 6,-1 9,-1 3,0 6,0 9,1 6,1 12,3 17,6 5,3 10,7 14,11 -4,-5 -9,-9 -14,-12 -5,-3 -11,-5 -17,-7 -3,-1 -6,-1 -9,-1 -3,0 -6,0 -9,1 -1,0 -3,1 -4,2 -1,1 -3,2 -4,3 -1,1 -1,1 -2,2 -1,1 -1,1 -1,2 -1,1 -1,3 -1,5l1 0z"/>
   <path class="fil3" d="M579 79c-3,-1 -5,-2 -8,-4 -3,-1 -5,-3 -7,-5 -2,-2 -5,-3 -7,-6 -2,-2 -4,-4 -5,-7l0 -1 0 1c-1,1 -1,3 -1,4 0,1 0,3 1,4 1,3 2,5 3,7 1,1 1,2 2,3 1,1 2,2 3,3 2,2 4,4 6,5l0 0c-1,-1 -2,-2 -3,-2 -1,-1 -2,-2 -3,-3 -2,-2 -3,-4 -5,-6 -1,-2 -3,-5 -3,-7 0,-1 -1,-3 -1,-4 0,-1 0,-3 1,-4l0 0c1,3 3,5 5,7 2,2 4,4 7,6 2,2 5,3 7,4 3,1 5,3 8,4l0 0z"/>
   <path class="fil6" d="M12 203l0 -93 20 0 0 41 33 -41 24 0 -37 43 39 49 -24 0 -28 -37 -7 9 0 28 -20 0zm88 0l0 -93 43 0c9,0 17,3 23,8 6,6 9,13 9,21 0,4 -1,7 -2,11 -1,3 -3,6 -5,8 -2,2 -4,4 -6,5 -2,1 -5,2 -7,3l21 35 -23 0 -18 -33 -14 0 0 33 -20 0zm20 -50l21 0c4,0 7,-1 10,-3 3,-2 4,-5 4,-9 0,-4 -1,-7 -4,-9 -3,-2 -6,-3 -10,-3l-21 0 0 25zm69 50l0 -93 20 0 0 41 33 -41 24 0 -37 43 39 49 -24 0 -28 -37 -7 9 0 28 -20 0z"/>
   <path class="fil7" d="M421 150c-11,1 -21,-8 -32,-11 -8,-2 -10,-1 -15,0 2,-6 9,-13 14,-17 21,-17 32,3 50,16 -7,1 -32,-13 -40,-6 1,0 4,-1 5,-1 2,0 4,1 5,1 4,1 7,2 11,3 7,2 15,6 22,10 -5,4 -12,4 -19,5z"/>
   <path class="fil7" d="M503 113c3,-9 -2,-18 -2,-27 0,-7 1,-8 3,-12 -5,1 -12,4 -16,7 -17,13 -4,26 3,42 2,-5 -3,-28 3,-32 0,1 -1,3 -1,4 0,1 0,3 0,4 0,3 0,6 0,9 0,6 2,13 4,19 4,-3 5,-8 7,-14z"/>
   <g>
    <path class="fil8" d="M84 244l5 -1 11 0 5 1 10 3 5 2 9 6 4 4 7 8 3 5 5 10 2 6 3 12 1 6 0 13 -1 7 -3 13c-1,5 -5,14 -7,18l-5 8c-2,2 -6,7 -8,9l-2 2 -10 3 -7 0 -11 -2c-3,-1 -6,-2 -9,-3 -6,-3 -7,-3 -12,-7 -5,-4 -6,-4 -10,-9 -4,-4 -4,-5 -7,-10 -1,-2 -2,-5 -3,-7l-2 -8 0 -4 1 -8 1 -4 3 -8 2 -4 5 -6 7 0c3,0 8,1 11,2l8 4 5 4 7 8 2 3 2 7c1,3 1,5 1,8l0 4 0 4 -2 7 -2 2c-6,4 -1,3 2,1 5,-2 19,-10 22,-14 2,-2 2,-4 3,-6 1,-4 1,-3 1,-8l-1 -8c0,-3 -1,-5 -2,-8l-1 -4 -2 -3 -7 -8 -5 -4c-2,-1 -9,-4 -11,-5 -2,0 -6,-1 -9,-1 -2,0 -8,0 -9,1 -9,3 -11,4 -20,9 -9,5 -14,8 -22,15l-9 10c-3,4 -2,4 -4,8l-2 4c-1,4 -1,4 -1,8l0 4c0,3 0,5 1,8 1,6 1,6 4,11 3,5 3,6 7,10 4,5 5,5 10,9 5,4 6,4 12,7 6,3 7,3 14,4l7 1c1,0 7,0 8,0 3,-1 14,-3 16,-4 3,-1 10,-4 12,-5 9,-5 16,-10 25,-16 4,-3 8,-7 12,-11l3 -4c3,-4 5,-8 7,-12l4 -9 2 -5 3 -13 1 -7 0 -13 -1 -6 -3 -12 -2 -6 -5 -10 -3 -5 -8 -8 -4 -4 -9 -6 -5 -2 -11 -3c-5,-1 -6,-1 -11,-1 -6,0 -6,0 -12,0 -1,0 -7,2 -9,2 -4,2 -19,10 -21,13 -1,1 1,1 1,1l5 -1z"/>
   </g>
   <path class="fil9" d="M90 239c47,-12 89,32 77,89 -9,43 -45,64 -71,58 -38,-8 -62,-47 -36,-77 16,-19 42,-24 62,-1 7,8 11,34 1,41"/>
   <g>
    <path class="fil8" d="M214 349l0 -136c-1,-2 -15,7 -16,8 -1,1 -8,5 -8,7l0 135 0 16c2,1 15,-7 17,-8 1,-1 7,-5 7,-6l0 -16z"/>
   </g>
   <polyline class="fil9" points="202,220 202,371 202,356 "/>
   <g>
    <path class="fil8" d="M210 431l-5 0c-4,0 -4,0 -7,-2 -3,-2 -4,-2 -6,-5 -2,-3 -3,-3 -5,-6l-3 -5 -2 -5 0 -8c0,-3 1,-8 2,-10l3 -4 6 1c2,0 5,2 7,3l7 3 6 5 10 13 4 7 2 13 0 5 -1 9 -1 4 -4 7 -2 2 -9 2c-5,1 -15,0 -19,0l-10 -2c-5,-1 -9,-3 -14,-5 -11,-5 -28,-10 -39,-13 -5,-1 -14,-3 -19,-4 -4,-1 -15,-2 -19,-2l-13 0c-6,0 -6,0 -12,1 -6,1 -7,1 -12,3 -4,1 -14,7 -16,8 -6,3 -12,7 -18,12 -2,2 -4,4 -5,6 -4,4 -3,4 -6,8l-3 8 0 4 1 8 1 4 3 7 2 3c2,3 5,6 8,8l7 4 4 1 7 1c5,0 5,-1 9,-2 7,-3 11,-4 17,-8 3,-2 9,-6 11,-8 0,0 4,-4 4,-4 0,-2 -14,6 -15,7l-2 1 -7 -1 -3 -1 -6 -3 -3 -2 -5 -5 -2 -3 -3 -7 -1 -4 -1 -8 0 -4 3 -8 2 -4 3 -4 10 -2c4,0 8,0 12,0 5,0 8,0 12,1 5,1 14,2 19,3 19,4 38,11 56,18 7,3 8,3 15,5 7,2 8,2 15,2 7,0 8,0 15,-1 4,-1 7,-1 11,-3l11 -5c6,-3 17,-9 22,-13 1,-1 7,-5 8,-7 3,-4 3,-3 5,-7 2,-4 2,-4 4,-8l1 -9 0 -5 -2 -13 -4 -8 -10 -13 -6 -5 -10 -5 -4 -1 -7 -1c-4,0 -4,0 -8,1 -7,2 -8,3 -14,6 -5,2 -10,6 -14,9 -1,1 -6,5 -7,6 -3,4 -3,3 -5,8 -2,3 -2,4 -3,7 -1,4 -1,5 -1,8l0 5 2 6 4 7c1,2 5,6 7,8l5 2c3,1 5,1 8,1l4 0c6,-2 9,-3 15,-6 0,0 13,-8 11,-9 -1,0 -3,1 -4,1z"/>
   </g>
   <path class="fil9" d="M201 437c-24,7 -38,-26 -28,-43 19,-34 60,-8 66,23 8,44 -43,59 -81,43 -34,-15 -105,-38 -134,-6 -27,30 17,72 41,46"/>
   <g>
    <path class="fil8" d="M320 384c-5,-1 -10,-2 -15,-4l-9 -4c-4,-2 -12,-7 -15,-9l-10 -8 -5 -6 -8 -14 -3 -7 -3 -14 -1 -7 1 -13 2 -6 5 -8 2 -3 7 -1c2,0 6,1 7,2l6 3 4 3 7 7c1,1 3,4 4,6 1,1 2,5 2,6l-1 4c-1,3 -2,4 -2,4 -1,2 12,-5 12,-5 3,-1 11,-6 13,-9 2,-3 3,-5 3,-9 0,-1 -1,-5 -2,-6 -1,-2 -4,-6 -6,-8l-6 -5 -4 -3c-4,-2 -9,-4 -14,-5 0,0 -10,1 -11,1 -2,1 -7,2 -10,3 -7,3 -15,9 -21,12 -3,2 -7,5 -9,7 -2,2 -5,5 -7,8l-5 9 -2 6 -1 14 1 7 3 14 3 7 8 14 5 6 10 8c4,3 11,8 15,9l9 4c5,2 15,4 20,5 1,0 5,1 6,0 6,-1 27,-14 23,-14l-6 0 -5 -1z"/>
   </g>
   <path class="fil9" d="M309 306c11,-16 -19,-36 -29,-35 -66,5 -50,115 39,121"/>
   <g>
    <path class="fil8" d="M349 385c1,2 16,-7 17,-8 1,-1 8,-5 8,-6l0 -155c0,-2 -15,7 -16,7 -1,1 -9,6 -9,7l0 155z"/>
   </g>
   <line class="fil9" x1="361" y1="223" x2="361" y2= "377" />
   <g>
    <path class="fil8" d="M256 228l-94 0c-2,1 7,15 8,16 1,1 5,8 7,8l94 0 154 0c2,-1 -7,-15 -8,-16 -1,-1 -5,-8 -7,-8l-154 0z"/>
   </g>
   <polyline class="fil9" points="169,240 417,240 263,240 "/>
   <g>
    <path class="fil8" d="M417 230c5,6 7,8 12,14 4,6 8,11 11,17 5,9 12,23 15,33l1 4c-10,4 -11,5 -21,10 -9,5 -13,7 -21,14 -2,2 -5,5 -6,7 -6,6 -5,5 -10,12l-7 14 -1 6 0 8c0,3 1,7 3,10 1,2 3,5 4,6 3,3 5,5 9,7 2,1 7,3 9,3 6,0 7,0 13,-1 5,-1 13,-5 16,-7 7,-4 14,-8 20,-14l1 -1 8 -11 4 -7c2,-5 4,-13 5,-18 1,-4 2,-13 2,-17l0 -10c3,0 8,2 11,3 7,2 8,3 14,6 3,1 5,3 8,5 1,0 3,3 3,3 4,0 18,-9 21,-11 0,0 4,-3 3,-3 -4,-4 -10,-7 -15,-9l-5 -2 -11 -3c-4,-1 -8,-2 -12,-2l-6 -1c-6,-1 -9,0 -15,0 -2,-10 -5,-18 -9,-27 -4,-10 -12,-23 -18,-32 -5,-7 -12,-16 -18,-22 0,0 -3,-3 -3,-3 -4,0 -18,9 -21,11 0,0 -4,3 -3,3l3 3 3 3zm38 78l3 0c1,3 2,11 2,15l0 11c0,6 -2,16 -3,22l-4 13 -3 7 -5 6c-2,0 -6,0 -8,0 -2,0 -5,-1 -7,-2 -2,-1 -4,-3 -6,-4 -1,-1 -4,-4 -5,-5 -1,-2 -3,-5 -3,-6 -1,-2 -2,-5 -2,-7l0 -8 1 -6 7 -14 4 -6 9 -10 2 -1 11 -3 6 -1z"/>
   </g>
   <path class="fil9" d="M424 217c23,21 50,69 50,103 -3,102 -91,73 -66,23 30,-61 105,-44 127,-24"/>
   <g>
    <path class="fil8" d="M535 349l0 -131c-1,-2 -15,7 -16,8 -1,1 -8,5 -8,7l0 154c0,2 15,-7 16,-7 1,-1 9,-6 9,-7l0 -23z"/>
   </g>
   <polyline class="fil9" points="523,225 523,379 523,356 "/>
   <g>
    <path class="fil8" d="M587 346l0 -106c-1,-2 -15,7 -16,8 -1,1 -8,5 -8,7l0 105c0,3 0,4 1,3 5,-1 24,-12 24,-14l0 -3z"/>
   </g>
   <polyline class="fil9" points="575,247 575,353 575,356 "/>
   <g>
    <path class="fil8" d="M319 59c3,-3 6,-8 8,-11l3 -3 1 0 6 0 12 1 6 2 12 6 6 4 11 9c6,4 16,14 21,19l16 18 9 10c28,33 55,68 89,95 4,3 13,10 17,13 3,2 10,6 13,7 3,1 10,4 13,5 11,2 10,2 21,2l5 -1c9,-3 11,-4 20,-8 5,-3 11,-7 16,-10 6,-4 0,-2 -3,-1l-9 5c-1,1 -4,1 -6,1l-8 0c-3,0 -6,-1 -8,-1 -6,-1 -7,-2 -13,-4 -6,-3 -7,-3 -13,-6 -6,-3 -8,-5 -13,-8 -5,-4 -8,-6 -13,-10 -32,-26 -58,-60 -84,-92l-9 -10c-6,-7 -14,-16 -21,-23 -3,-3 -12,-12 -16,-15l-11 -9 -6 -4 -12 -6 -6 -2 -13 -1c-1,0 -6,0 -7,1l-14 5c-6,2 -17,9 -22,13 -5,3 -6,5 -11,10 -5,5 -5,5 -9,11 -4,6 -5,8 -9,14 -1,3 12,-5 12,-5 2,-1 11,-6 12,-9l3 -5 3 -4z"/>
   </g>
   <path class="fil9" d="M301 75c45,-83 106,-11 134,20 32,34 122,165 180,124"/>
   <g>
    <path class="fil8" d="M510 228l-109 0c-2,1 7,15 8,16 1,1 5,8 7,8l109 0 381 0c2,-1 -7,-15 -8,-16 -1,-1 -5,-8 -7,-8l-381 0z"/>
   </g>
   <polyline class="fil9" points="408,240 897,240 517,240 "/>
   <g>
    <path class="fil8" d="M703 262l0 -22c0,-1 0,-10 0,-10 -2,-1 -16,7 -18,8 -1,1 -7,5 -7,6l0 25 0 7c0,0 1,1 1,1 4,0 18,-9 21,-11 1,0 4,-3 3,-3l-1 -1z"/>
   </g>
   <path class="fil9" d="M690 237c0,4 -1,32 1,34"/>
   <g>
    <path class="fil8" d="M698 264l-22 -2c-10,0 -7,0 -17,0 -9,1 -7,0 -16,2 -6,1 -21,11 -25,13 -3,2 -7,5 -10,8l-4 6 -1 3 -1 7c0,3 0,4 1,6l1 3 2 3 5 5c3,3 6,4 10,5l7 0c4,0 7,-2 11,-4 2,-1 16,-9 17,-11 0,-1 -3,0 -6,0 -2,0 -5,0 -6,-1 -3,-1 -6,-2 -8,-5l-5 -5 -1 -3 -2 -6 0 -3 1 -6 1 -3 13 -1c3,0 20,1 24,1 6,0 6,1 12,1 5,0 28,-15 24,-15l-5 0z"/>
   </g>
   <path class="fil9" d="M691 271c-20,0 -72,-11 -75,21 -1,10 6,28 28,25"/>
   <g>
    <path class="fil8" d="M741 441l-1 1 -5 2 -5 1 -11 2 -6 0 -12 0 -6 -1 -13 -3 -6 -2 -12 -5 -6 -3 -11 -8 -5 -4 -9 -10 -4 -5 -6 -10 -2 -5 -4 -11 -1 -5 -1 -11 0 -5 3 -10 2 -5 6 -9c1,-1 2,-3 3,-3l8 -4 7 -3 11 -3c3,0 8,0 11,0l8 2 5 3 10 8 4 5 6 11 2 6 1 9 0 3 -2 6 -2 3c-1,0 -7,1 -8,1l-4 0 -7 -3 -4 -2 -7 -6 -4 -4c-1,-1 -3,-5 -4,-5 -3,0 -16,10 -18,12 -1,1 -5,4 -4,5l3 5 4 4 7 6 4 2 7 3 4 1 7 0c5,-1 6,-2 11,-3 4,-2 12,-7 15,-10 3,-2 11,-8 13,-11 3,-3 3,-3 5,-6 3,-4 3,-4 4,-9 1,-2 1,-4 1,-6l-1 -9 -2 -6 -6 -11 -4 -5 -10 -8 -6 -3c-2,-1 -9,-3 -12,-3 -2,0 -7,0 -9,0 -10,2 -11,2 -20,6l-16 8c-4,2 -9,6 -12,8 -7,5 -13,10 -19,15 -3,2 -5,5 -7,8l-7 11 -2 5 -3 11 0 5 1 11 1 5 4 11 3 5 6 10 4 5 9 10 5 4 11 8 6 3 12 5 6 2 13 3 6 1 13 0c7,0 6,0 12,-1 6,-1 6,-1 12,-3 1,0 11,-5 14,-6 11,-6 17,-11 27,-20 3,-3 6,-5 8,-8 1,-1 4,-6 4,-6 0,-2 -13,8 -14,8 -2,2 -7,5 -9,8l-3 4z"/>
   </g>
   <path class="fil9" d="M649 365c28,39 66,12 64,-13 -2,-23 -28,-46 -51,-40 -69,18 -73,73 -37,112 37,40 107,43 130,5"/>
   <g>
    <path class="fil8" d="M760 250c5,0 6,0 11,1 5,1 6,2 10,4l7 4 6 5 7 10 2 4 3 8 1 4 0 8c0,3 -1,8 -2,11l-1 1 -3 0c-3,0 -12,-1 -15,-1 -5,-1 -14,-3 -19,-5 -2,-1 -10,-3 -11,-4 -4,-3 -5,-2 -9,0 -3,1 -18,10 -20,12 0,1 3,2 5,3 7,5 24,24 29,31 6,8 13,15 19,23 5,5 14,15 19,19l10 8 5 4 11 6 5 2 11 2c1,0 5,0 6,0 2,-1 8,-2 10,-3 7,-3 14,-7 21,-11 4,-3 8,-6 12,-9 1,-1 0,-1 1,-3 1,-2 3,-9 3,-10 0,-2 0,-5 0,-7 0,-1 -1,-4 -2,-5l-2 -3c-1,-1 -2,-1 -4,-2 -3,-1 -4,-1 -8,-2 -3,0 -18,9 -21,11 -6,5 -2,3 0,4 2,0 3,1 5,1 2,1 3,1 5,3 2,2 2,2 2,4 1,2 1,3 0,5 0,4 0,3 -1,7l-1 5 -1 0 -10 -2 -5 -2 -10 -6 -5 -4 -10 -8c-5,-5 -14,-14 -19,-19 -7,-7 -13,-15 -19,-23l-7 -8c6,-1 7,0 12,-2 5,-2 20,-10 25,-14 3,-2 5,-4 8,-7 2,-2 3,-4 4,-7 1,-2 2,-9 2,-11l0 -8 -1 -4 -3 -8 -2 -4 -7 -10 -7 -6 -11 -6c-3,-2 -7,-2 -11,-3 -3,-1 -7,-1 -10,0l-5 1c-5,2 -10,4 -14,7 -4,3 -11,6 -15,10 0,0 -4,4 -3,4 3,0 12,-5 15,-7z"/>
   </g>
   <path class="fil9" d="M757 250c14,-19 62,2 63,39 1,55 -83,18 -79,18 3,0 11,8 29,27 20,23 73,98 111,61 -1,-3 14,-27 -12,-29"/>
   <g>
    <path class="fil8" d="M302 335c21,-11 45,-23 66,-32 5,-2 12,-5 17,-7l6 -2c1,-2 -11,-13 -12,-15 -1,-1 -6,-6 -8,-6 -3,1 -11,4 -14,6 -22,10 -46,22 -68,33l-7 4c-1,2 11,13 12,15 1,1 6,6 8,6z"/>
   </g>
   <path class="fil9" d="M292 325c7,-4 65,-34 88,-42"/>
   <g>
    <path class="fil8" d="M215 252c2,-1 -7,-16 -8,-17 -1,-1 -5,-8 -6,-8l-201 0c-2,0 7,15 7,16 1,1 6,9 7,9l201 0z"/>
   </g>
   <line class="fil9" x1="7" y1="240" x2="208" y2= "240" />
   <path class="fil10" d="M126 549l0 -15 -16 0 0 15c0,3 1,5 2,7 1,1 3,2 5,2 3,0 5,-1 6,-2 2,-2 2,-4 2,-7zm19 -23l0 8 -9 0 0 48 -10 0 0 -20 -17 20 -13 0 14 -16c-7,-2 -10,-7 -10,-16l0 -15 -8 0 0 -8 53 0zm14 0l9 0 0 8 -9 0 0 48 -10 0 0 -48 -9 0 0 -8 9 0 0 -6c0,-2 -1,-4 -2,-5 -1,-1 -3,-2 -5,-2 -4,0 -7,2 -7,7l0 2 -10 0 0 -2c0,-5 2,-9 5,-11 3,-3 7,-4 12,-4 5,0 9,1 12,4 3,3 5,6 5,11l0 6zm31 -22c12,0 25,2 39,7l0 9c-14,-5 -27,-8 -39,-8 -3,0 -5,1 -6,2 -1,1 -2,3 -2,6l0 6 9 0 0 8 -9 0 0 48 -10 0 0 -48 -9 0 0 -8 9 0 0 -6c0,-5 2,-9 5,-11 3,-3 8,-4 13,-4zm-4 30l0 -8 53 0 0 8 -9 0 0 48 -10 0 0 -23 -15 0 0 11 -8 0 -3 -6c-2,-4 -2,-6 -2,-8 0,-2 1,-4 4,-5l0 -18 -10 0zm35 0l-15 0 0 17 15 0 0 -17zm40 38c-5,0 -10,-2 -14,-6 -4,-4 -6,-9 -7,-16 9,-1 13,-5 13,-9 0,-3 -1,-5 -3,-7l-16 0 0 -8 58 0 0 8 -9 0 0 48 -10 0 0 -15c-1,2 -3,3 -5,4 -2,1 -5,2 -8,2zm2 -9c3,0 6,-1 8,-3 2,-2 3,-5 3,-9l0 -18 -13 0c1,2 2,4 2,7 0,7 -4,12 -12,14 1,2 2,4 4,6 2,1 4,2 7,2zm26 -29l0 -8 53 0 0 8 -9 0 0 48 -10 0 0 -23 -15 0 0 11 -8 0 -3 -6c-2,-4 -2,-6 -2,-8 0,-2 1,-4 4,-5l0 -18 -10 0zm35 0l-15 0 0 17 15 0 0 -17zm156 30l0 -9 21 0 0 9 -21 0zm39 -3l15 0 0 -28 -15 28zm32 0l0 9 -7 0 0 12 -10 0 0 -12 -25 0 0 -9 18 -34 16 0 0 34 7 0zm17 0l15 0 0 -28 -15 28zm32 0l0 9 -7 0 0 12 -10 0 0 -12 -25 0 0 -9 18 -34 16 0 0 34 7 0zm98 -19l0 -7 -59 0 0 16c0,3 1,5 2,7 1,1 3,2 5,2 3,0 6,-1 9,-4 1,-4 2,-8 5,-10 3,-3 6,-4 10,-4 3,0 6,1 8,2 2,1 3,3 4,6 1,-5 6,-8 13,-8 1,0 2,0 3,0zm19 -15l0 8 -9 0 0 48 -10 0 0 -33c-1,0 -2,0 -3,0 -3,0 -5,1 -6,2 -1,1 -2,4 -2,7l0 6 -10 0 0 -6c0,-6 -2,-8 -6,-8 -2,0 -4,1 -5,2 -1,2 -2,4 -2,7 0,4 1,8 3,10 2,3 6,4 10,4 1,0 2,0 3,0l0 8c-1,0 -3,0 -4,0 -6,0 -11,-2 -15,-5 -4,-3 -6,-7 -7,-13 -3,2 -7,3 -11,3 -10,0 -16,-6 -16,-17l0 -16 -8 0 0 -8 96 0zm-5 8l0 -8 28 0 0 8 -9 0 0 48 -10 0 0 -48 -9 0zm14 -14c-5,0 -10,-1 -13,-4 -3,-3 -5,-6 -5,-11l10 0c0,2 1,4 2,6 1,1 3,2 6,2 3,0 4,-1 6,-2 1,-1 2,-3 2,-6l10 0c0,5 -2,8 -5,11 -3,3 -7,4 -12,4zm49 14l0 17c-2,0 -4,-1 -7,-1 -5,0 -9,1 -11,3 -3,2 -4,5 -4,8 0,3 1,6 4,8 3,2 6,3 10,3 2,0 4,0 7,-1 2,-1 4,-1 6,-2l0 9c-4,2 -8,3 -13,3 -7,0 -13,-2 -17,-5 -4,-3 -6,-8 -6,-14 0,-5 2,-10 6,-13 4,-4 9,-5 16,-6l1 0 0 -8 -29 0 0 -8 48 0 0 8 -9 0zm8 67l-12 0 -10 -15 10 0 12 15zm22 -48l16 0 0 -18 -14 0 0 11c0,3 -1,6 -2,8zm35 -26l0 8 -9 0 0 48 -10 0 0 -21 -13 0c-4,0 -8,0 -12,-1l16 22 -12 0 -16 -23 0 -7 6 0c5,0 8,-2 8,-7l0 -10 -18 0 0 -8 61 0zm-472 56l0 -57 12 0 14 24c2,4 4,7 6,11 2,3 3,6 4,7l1 2c0,-5 -1,-11 -1,-20l0 -24 11 0 0 57 -12 0 -14 -24c-2,-4 -4,-7 -6,-11 -2,-3 -3,-6 -4,-7l-1 -2c1,5 1,12 1,20l0 24 -11 0zm72 -22l16 0 -1 -3c-2,-6 -3,-11 -5,-15 -1,-4 -2,-7 -2,-8l0 -2c-1,3 -3,11 -7,25l-1 2zm23 22l-4 -13 -22 0 -4 13 -11 0 19 -57 14 0 19 57 -11 0z"/>
   <path class="fil11" d="M681 165c1,3 -1,7 -3,9 -11,18 6,45 -1,57 -2,2 -5,4 -4,6 1,2 3,2 5,2 4,-1 6,-1 9,3 3,3 8,3 11,1 4,-2 6,-5 9,-9 10,-13 21,-33 8,-48 -8,-7 -24,0 -30,-10 -2,-4 -1,-9 -3,-13 0,-1 -1,-1 -2,-1 0,1 1,3 1,2z"/>
   <path class="fil11" d="M670 157c-5,-3 -11,-1 -16,2 -10,4 -21,7 -32,10 -10,2 -18,-1 -27,-5 -9,-4 -18,-3 -24,6 -6,10 -7,28 7,30 2,0 5,0 7,1 2,1 2,4 2,6 -2,10 3,15 11,21 13,8 20,4 25,-9 9,-20 27,-51 47,-61z"/>
   <path class="fil12" d="M649 222c-3,8 6,14 13,12 2,0 4,-1 6,0 6,2 6,6 13,5 5,0 5,2 8,3 4,2 6,2 11,1 -8,3 -11,7 -21,3 -6,-1 -9,3 -16,0 -11,-2 -20,-15 -13,-25z"/>
   <path class="fil13" d="M679 164c-6,1 -7,9 -8,15 0,0 0,0 0,0 -1,4 -2,9 -5,12 -5,6 -14,10 -17,18 0,0 0,0 0,0 -2,6 -2,18 -2,18 1,6 7,10 13,9 0,0 0,0 0,0 7,-2 8,-2 12,3 0,0 0,0 1,1 3,2 9,-2 12,1 1,1 9,7 2,0 -5,-4 -4,0 -7,-2 -6,-3 0,-10 1,-16 1,-5 -2,-12 -3,-17 -2,-7 0,-15 1,-22 0,0 0,0 0,0 0,-5 4,-13 3,-17 0,-1 -1,-2 -2,-2z"/>
   <path class="fil12" d="M696 191c2,2 4,4 6,7 2,3 4,5 4,9 1,2 1,4 1,6 1,7 -1,13 -6,19 5,-11 3,-18 0,-28 -2,-4 -4,-8 -6,-11 0,0 0,0 0,0 0,0 0,0 0,0z"/>
   <path class="fil12" d="M707 196c2,3 4,7 5,11 0,1 0,3 0,4 0,1 0,3 -1,4 0,-1 0,-3 -1,-4 0,-2 -1,-4 -2,-6 -1,-2 -1,-5 -2,-7 0,0 0,-1 -1,-2 0,0 0,0 0,1z"/>
   <path class="fil12" d="M659 204c-1,2 -2,4 -3,6 -1,4 -2,9 -2,12 0,3 0,5 0,8 -2,-4 -3,-8 -2,-12 0,-2 1,-4 2,-6 1,-2 2,-3 3,-5 1,-1 2,-2 3,-3 0,0 0,0 0,0z"/>
   <path class="fil12" d="M663 204c-1,3 -2,5 -3,8 -1,3 -2,6 -3,9 -1,-3 0,-7 1,-10 1,-3 3,-5 5,-8 0,0 0,0 1,-1 0,1 -1,1 -1,2z"/>
   <path class="fil13" d="M671 150c-24,-16 -52,-32 -82,-27 -10,2 -13,7 -8,16 3,5 6,9 12,9 11,0 21,-4 32,-5 16,-2 31,6 46,8 0,-1 0,-1 0,-2z"/>
   <path class="fil13" d="M673 160c-13,5 -23,22 -26,35 -3,12 0,26 -7,36 -12,17 -44,7 -30,-16 5,-8 11,-16 19,-22 4,-3 9,-6 12,-10 2,-3 4,-6 6,-9 2,-3 5,-5 8,-7 4,-3 8,-6 12,-8 3,-2 6,-2 7,2z"/>
   <path class="fil12" d="M673 158c-1,-3 -4,-4 -7,-4 -43,5 -34,-23 -65,-21 -9,1 -17,8 -18,16 0,3 0,6 -2,9 -2,3 -8,5 -5,9 1,1 2,1 3,0 11,-7 23,4 35,4 18,0 35,-8 52,-15 3,-1 6,-3 8,0z"/>
   <path class="fil12" d="M632 197c-5,5 -9,10 -13,15 -3,5 -7,13 -4,18 -3,-3 -3,-8 -2,-13 2,-6 5,-10 10,-14 3,-2 6,-5 9,-7 0,0 0,0 0,0 0,0 0,0 0,0z"/>
   <path class="fil12" d="M620 219c-1,2 -1,3 -1,5 0,2 -1,3 -1,4 0,1 0,2 0,3 -1,-2 -1,-3 -2,-5 0,-3 1,-6 3,-9 0,0 0,-1 1,-1 0,1 -1,1 -1,2z"/>
   <path class="fil12" d="M625 185c-4,3 -8,5 -12,8 -5,3 -10,6 -16,6 -5,0 -10,-2 -12,-4 -4,-2 -8,-2 -11,-6 -2,-2 -2,-5 0,-7 -1,2 0,4 1,6 3,3 5,3 10,4 2,1 4,2 7,2 0,0 0,0 0,0 1,0 1,0 2,0 2,0 3,0 4,0 3,0 7,-2 11,-4 6,-3 11,-5 17,-8 0,0 0,0 1,0 0,0 0,0 -1,0z"/>
   <path class="fil12" d="M637 175c-2,1 -4,3 -6,4 -3,1 -6,3 -9,4 -4,2 -7,4 -11,6 -5,2 -11,3 -16,2 -3,-1 -6,-1 -9,-4 -1,-1 -2,-2 -1,-3 0,2 3,4 4,4 4,2 11,1 15,0 5,-2 10,-5 16,-7 4,-1 7,-2 11,-3 2,-1 4,-1 6,-2 1,0 1,0 2,-1 0,0 0,0 0,0z"/>
   <path class="fil12" d="M671 147c-3,-7 -6,-15 -6,-23 1,-12 0,-26 -9,-35 -5,-4 -11,-7 -15,-13 -3,-4 -4,-10 -9,-12 -4,-2 -8,-2 -12,-6 -8,-8 -22,6 -23,16 0,2 0,4 -1,5 -1,1 -1,2 1,2 34,8 41,54 73,64 0,-1 -1,-2 0,0z"/>
   <path class="fil11" d="M672 146c-22,-15 -36,-37 -53,-57 -3,-4 -8,-7 -12,-9 -4,-2 -6,-1 -10,0 -4,2 -10,1 -12,5 -1,1 0,3 -1,5 -2,15 -23,25 -5,38 14,-11 34,-4 48,3 14,7 28,14 42,21 0,-2 1,-4 1,-5z"/>
   <path class="fil13" d="M672 148c1,-4 5,-7 9,-6 0,0 1,0 1,0 1,0 0,-1 0,-2 -1,-5 1,-10 2,-15 1,-4 0,-8 0,-11 -1,-9 -4,-9 -11,-13 -3,-2 -4,-5 -6,-8 -4,-5 -10,-6 -15,-8 7,6 13,15 13,25 0,3 -2,7 -2,10 0,4 1,7 2,11 2,5 4,10 7,16z"/>
   <path class="fil12" d="M608 86c4,2 7,5 10,8 3,3 5,6 8,10 2,3 3,6 5,9 1,1 1,1 2,3 1,1 2,2 3,3 -1,-1 -3,-2 -4,-3 -1,-1 -2,-2 -3,-3 -3,-3 -5,-7 -8,-11 -4,-5 -7,-10 -13,-15 -1,-1 -2,-2 -3,-3 1,0 1,1 2,1z"/>
   <path class="fil12" d="M606 92c6,4 11,10 16,16 -4,-3 -9,-9 -12,-11 -3,-3 -8,-7 -12,-8 -1,0 -2,-1 -3,-1 0,0 1,0 1,0 3,1 7,2 10,4z"/>
   <path class="fil12" d="M604 97c1,1 3,2 4,3 -1,-1 -4,-2 -5,-2 -3,-1 -6,-2 -9,-4 -1,0 -1,0 -2,-1 0,0 1,0 1,0 4,1 7,2 10,4z"/>
   <path class="fil12" d="M669 103c2,4 3,8 4,12 1,4 0,8 0,12 0,4 1,8 3,11 -3,-3 -5,-7 -6,-11 -1,-5 0,-10 0,-15 0,-2 0,-4 -1,-7 0,-1 0,-1 0,-2 0,0 0,0 0,0z"/>
   <path class="fil12" d="M674 110c2,3 3,6 3,10 0,2 0,4 0,6 0,1 0,1 0,2 0,0 -1,-1 -1,-2 -1,-1 -1,-3 -1,-4 0,-3 -1,-5 -1,-8 0,-1 0,-2 -1,-4 0,0 0,1 0,1z"/>
   <path class="fil12" d="M644 142c-4,-1 -7,-2 -11,-3 -4,-1 -7,-2 -11,-3 0,0 0,0 -1,0 0,0 1,0 1,0 7,1 14,3 21,7z"/>
   <path class="fil12" d="M616 131c-5,-1 -10,-2 -15,-2 -5,0 -9,0 -13,2 -1,0 -2,1 -2,1 0,0 1,-1 2,-1 4,-3 8,-3 13,-3 6,0 11,1 17,3z"/>
   <path class="fil14" d="M721 190c5,26 49,27 65,8 6,-7 12,-10 10,-21 -1,-5 -4,-10 -9,-14 -1,-1 -2,-2 -2,-3 11,-4 8,-19 -1,-23 -13,-7 -4,-11 -15,-17 -36,-17 -39,39 -80,28 1,3 1,7 -1,10 0,0 29,7 33,31z"/>
   <path class="fil11" d="M707 131c13,-3 30,1 41,-9 12,-12 14,-5 24,-12 17,-12 -3,-50 -22,-52 -19,-3 -24,21 -29,35 -7,17 -20,30 -31,45 -2,3 -4,8 0,10 2,-1 11,-14 17,-15z"/>
   <path class="fil13" d="M688 144c3,-19 48,-41 47,-82 0,-13 -15,-13 -25,-11 -6,1 -12,2 -16,7 -2,3 -3,8 -4,12 -2,5 -5,9 -5,13 1,22 24,22 1,55 -1,1 -2,3 -2,4 0,2 3,2 3,1z"/>
   <path class="fil15" d="M728 67c0,7 -2,15 -5,21 -4,7 -9,14 -15,20 3,-5 6,-10 8,-15 4,-8 8,-16 11,-25 0,-1 1,-2 1,-4 0,1 0,2 0,2z"/>
   <path class="fil15" d="M722 66c0,5 -1,9 -3,14 -1,3 -3,6 -5,9 2,-4 3,-9 5,-13 1,-3 2,-6 3,-10 0,-1 0,-1 0,-2 0,0 0,1 0,1z"/>
   <path class="fil15" d="M765 88c-2,5 -5,9 -8,13 -6,7 -14,13 -23,17 5,-4 10,-8 15,-13 5,-5 10,-11 14,-16 1,-2 3,-4 4,-6 0,0 0,0 0,0 -1,2 -1,4 -2,6z"/>
   <path class="fil15" d="M758 84c-2,5 -5,9 -8,13 -3,4 -7,7 -11,10 1,-1 3,-3 4,-5 2,-2 3,-5 5,-7 3,-4 6,-7 9,-11 0,0 1,-1 1,-1 0,0 0,1 0,1z"/>
   <path class="fil16" d="M707 161c-1,2 -5,0 -5,-2 1,-2 5,0 5,2z"/>
   <path class="fil16" d="M718 154c0,2 -5,2 -5,0 0,-2 5,-2 5,0z"/>
   <path class="fil16" d="M729 151c0,2 -5,2 -5,0 0,-2 5,-2 5,0z"/>
   <path class="fil16" d="M721 164c-1,2 -5,0 -5,-2 1,-2 5,0 5,2z"/>
   <path class="fil16" d="M725 175c-1,1 -5,-2 -4,-3 1,-1 5,2 4,3z"/>
   <path class="fil16" d="M738 191c-1,1 -5,-2 -4,-3 1,-1 5,2 4,3z"/>
   <path class="fil16" d="M754 191c-1,2 -5,0 -5,-2 1,-2 5,0 5,2z"/>
   <path class="fil16" d="M738 174c-1,2 -5,0 -5,-2 1,-2 5,0 5,2z"/>
   <path class="fil16" d="M737 163c0,2 -5,1 -5,-1 0,-2 5,-1 5,1z"/>
   <path class="fil16" d="M751 160c0,2 -5,1 -5,-1 0,-2 5,-1 5,1z"/>
   <path class="fil16" d="M740 153c0,2 -5,2 -5,1 0,-2 5,-2 5,-1z"/>
   <path class="fil16" d="M734 141c0,2 -4,3 -5,2 0,-2 4,-3 5,-2z"/>
   <path class="fil16" d="M750 132c1,2 -4,4 -5,2 -1,-2 4,-4 5,-2z"/>
   <path class="fil16" d="M754 148c0,2 -5,3 -5,1 0,-2 5,-3 5,-1z"/>
   <path class="fil16" d="M750 172c-1,2 -5,0 -5,-2 1,-2 5,0 5,2z"/>
   <path class="fil16" d="M746 143c0,2 -4,3 -5,2 0,-2 4,-3 5,-2z"/>
   <path class="fil16" d="M761 134c0,2 -5,3 -5,1 0,-2 5,-3 5,-1z"/>
   <path class="fil16" d="M766 157c0,2 -5,2 -5,0 0,-2 5,-2 5,0z"/>
   <path class="fil16" d="M760 174c-1,2 -5,0 -5,-2 1,-2 5,0 5,2z"/>
   <path class="fil11" d="M673 161c-9,5 -9,11 -8,20 0,-2 2,-3 3,-4 3,-3 8,-6 9,-11 2,1 2,-2 4,-1 0,8 11,4 16,8 -3,-6 -2,-12 -8,-15 3,-2 2,-5 2,-8 6,2 11,-7 16,-11 -7,-1 -14,0 -19,4 -7,-7 5,-7 0,-22 -5,5 -6,17 -8,18 -5,-2 -10,6 -11,11 -5,-3 -11,-2 -15,2 9,6 12,1 16,4 1,1 1,4 3,4z"/>
   <path class="fil12" d="M674 159c-7,5 -7,9 -7,17 0,-1 2,-2 3,-3 3,-3 6,-5 8,-9 1,1 2,-2 3,-1 0,7 9,3 12,7 -3,-5 -1,-10 -6,-12 2,-1 2,-4 2,-7 5,1 9,-6 13,-9 -5,-1 -11,0 -15,4 -6,-6 4,-6 0,-19 -4,5 -5,15 -6,15 -4,-1 -8,5 -9,10 -4,-2 -9,-1 -12,2 7,5 9,1 13,3 1,1 0,3 2,3z"/>
   <path class="fil17" d="M649 189c-1,4 -1,8 -1,12 0,0 0,0 -1,0 -1,1 -2,2 -1,4 0,0 0,0 0,0 0,0 0,0 0,0 0,1 1,1 1,1 2,0 3,-1 3,-3 0,-1 0,-1 -1,-1 0,0 -1,0 -1,0 0,0 0,0 -1,0 1,-5 2,-11 4,-16 1,-4 1,-4 4,-9 2,-4 6,-10 11,-14 1,-1 3,-2 5,-3 1,0 2,-1 3,-1 -1,0 -1,0 -2,0 -1,0 -3,0 -4,1 -4,1 -7,4 -10,7 -6,7 -9,15 -10,23z"/>
   <path class="fil17" d="M676 163c1,1 2,3 4,5 4,4 8,6 14,9 4,2 12,5 16,6 2,0 2,0 3,1 4,0 9,1 13,1 0,-1 0,-1 1,-1 0,0 1,0 1,0 0,0 1,0 1,0 1,1 1,2 1,3 0,1 -2,0 -2,0 -1,0 -1,-1 -2,-2 0,0 0,0 0,0 -4,0 -7,1 -11,1 -5,0 -11,-1 -16,-3 -4,-2 -8,-3 -12,-6 -5,-3 -9,-6 -12,-11 -1,-1 -2,-3 -2,-4 0,-1 0,-1 0,-2 0,1 1,2 2,3z"/>
   <path class="fil17" d="M671 157c-2,1 -4,1 -6,1 0,0 0,0 0,0 0,0 0,0 0,0 0,0 0,0 1,1 0,1 0,1 -1,1 -1,0 -1,-1 -1,-1 0,-1 1,-1 1,0 1,0 3,-1 4,-1 1,0 3,-1 4,-1 -1,1 -1,1 -2,1z"/>
   <path class="fil17" d="M664 157c-3,1 -5,1 -8,1 -5,0 -11,-1 -16,-2 -2,0 -3,-1 -5,-1 0,1 1,2 0,2 -1,0 -3,-1 -2,-2 0,-1 1,-1 2,0 0,0 0,0 0,0 0,0 0,0 0,0 0,0 0,0 0,0 0,0 1,0 1,0 2,0 4,1 6,1 4,0 9,1 13,1 1,0 2,0 3,0 1,0 3,0 4,-1 3,-1 5,-1 8,-2 -2,1 -4,3 -7,4z"/>
   <path class="fil17" d="M666 144c1,1 3,1 4,3 1,1 3,2 3,4 -3,-3 -6,-4 -9,-5 -3,-1 -6,-3 -10,-4 -1,0 -2,-1 -3,-1 0,0 1,0 1,0 4,0 8,1 12,3z"/>
   <path class="fil13" d="M682 145c2,2 1,5 0,7 -1,1 -1,2 -2,3 -1,1 -3,2 -4,1 1,0 2,-1 3,-2 1,-1 2,-4 3,-6 0,-1 0,-1 0,-2 0,-1 0,-2 -1,-3 0,0 0,0 -1,-1 1,0 2,1 2,2z"/>
   <path class="fil13" d="M680 143c0,0 -1,1 -1,1 -2,3 -5,11 -4,14 -3,-5 0,-12 5,-15 0,0 1,0 1,0 0,0 0,0 -1,1z"/>
   <path class="fil17" d="M682 151c2,2 5,4 7,5 1,1 8,4 9,5 2,1 7,3 10,4 2,1 5,2 7,2 0,0 0,0 0,0 0,0 0,0 0,0 0,0 0,-1 0,-1 1,-1 3,0 3,1 0,1 0,1 -1,2 0,1 -1,1 -2,1 -1,0 -1,0 -2,0 0,0 -1,0 -1,-1 0,-1 0,-1 1,-2 -2,0 -3,-1 -5,-1 -4,-1 -8,-2 -12,-3 -4,-1 -7,-4 -10,-6 -3,-2 -5,-4 -7,-7 -1,-1 -1,-2 -2,-3 1,1 2,2 3,3z"/>
   <path class="fil17" d="M677 155c1,1 2,2 3,3 3,2 5,4 8,6 0,0 0,0 0,0 2,1 7,4 10,6 3,2 8,3 11,4 4,1 8,2 12,2 0,0 0,0 0,0 0,0 0,0 0,0 0,0 1,0 2,0 1,0 2,1 2,2 0,0 0,1 0,1 -1,1 -2,0 -3,-1 0,0 0,0 0,0 0,0 0,0 0,0 0,0 0,0 0,0 -1,-1 -1,-2 -1,-2 -2,0 -5,0 -7,0 -4,0 -6,-1 -9,-1 -7,-2 -13,-5 -19,-9 -3,-2 -6,-4 -8,-7 -1,-1 -2,-2 -3,-3 -1,-1 -1,-1 -1,-2 1,1 2,2 2,2z"/>
   <path class="fil17" d="M712 156c1,1 2,1 3,2 0,0 0,-1 1,-1 1,0 3,0 3,2 0,1 -1,1 -1,2 0,0 -1,1 -2,0 -1,0 -1,-1 0,-2 0,0 0,0 1,-1 0,0 0,0 0,0 -2,-1 -4,-1 -6,-2 -6,-2 -12,-5 -18,-6 0,0 0,0 0,0 0,0 0,0 -1,0 -2,0 -7,-2 -10,-2 4,-1 7,0 11,0 3,1 6,1 8,2 4,2 9,4 13,6z"/>
   <path class="fil17" d="M638 115c1,1 1,2 1,2 0,0 0,0 0,1 0,0 0,0 0,0 3,1 5,3 8,4 6,3 12,7 18,11 5,4 11,9 11,16 -2,-7 -8,-11 -13,-15 -4,-3 -9,-6 -13,-9 -4,-2 -7,-5 -11,-7 0,0 -1,1 -1,1 0,0 0,0 0,0 0,0 -1,0 -1,0 -1,-1 0,-2 0,-3 1,-1 2,-1 2,0z"/>
   <path class="fil17" d="M670 126c2,2 4,4 6,7 2,4 3,9 1,13 0,-7 -3,-13 -8,-19 -1,-1 -3,-3 -4,-5 2,1 3,2 4,4z"/>
   <path class="fil17" d="M718 148c3,2 7,5 10,8 0,0 0,0 1,0 1,0 3,0 3,2 0,0 0,0 0,0 0,0 0,0 0,0 0,1 0,1 0,2 -1,1 -3,1 -4,0 0,0 -1,-1 0,-2 0,0 1,-1 1,-1 0,0 0,0 0,-1 -5,-3 -10,-6 -15,-8 -4,-2 -4,-2 -9,-4 -5,-2 -11,-3 -18,-1 -1,0 -3,1 -6,2 -1,0 -2,1 -2,1 0,-1 1,-1 1,-2 1,-1 2,-2 3,-2 4,-2 8,-2 12,-2 9,0 16,4 24,9z"/>
  </g>
 </g>
</svg>
