<?xml version="1.0" encoding="UTF-8"?>
<!DOCTYPE svg PUBLIC "-//W3C//DTD SVG 1.1//EN" "http://www.w3.org/Graphics/SVG/1.1/DTD/svg11.dtd">
<!-- Creator: CorelDRAW X6 -->
<svg xmlns="http://www.w3.org/2000/svg" xml:space="preserve" width="340px" height="100px" version="1.1" style="shape-rendering:geometricPrecision; text-rendering:geometricPrecision; image-rendering:optimizeQuality; fill-rule:evenodd; clip-rule:evenodd"
viewBox="0 0 53 16"
 xmlns:xlink="http://www.w3.org/1999/xlink">
 <defs>
  <style type="text/css">
   <![CDATA[
    .fil0 {fill:none}
    .fil1 {fill:#FEFEFE}
    .fil4 {fill:#1D73A2}
    .fil5 {fill:#349CC1}
    .fil3 {fill:#81D4D8}
    .fil2 {fill:#B8DAF5}
    .fil6 {fill:#512751;fill-rule:nonzero}
   ]]>
  </style>
 </defs>
 <g id="Layer_x0020_1">
  <metadata id="CorelCorpID_0Corel-Layer"/>
  <g id="_4852925136">
   <rect class="fil0" width="53" height="16"/>
   <g>
    <g>
     <polygon class="fil1" points="3,3 11,3 11,12 3,12 "/>
     <polygon class="fil2" points="0,12 0,4 7,8 7,15 "/>
     <polygon class="fil2" points="13,12 13,4 7,8 7,15 "/>
     <path class="fil3" d="M7 0l3 2 3 2 0 4 0 4 -3 2 -3 2 -3 -2 -3 -2 0 -4 0 -4 3 -2 3 -2zm0 4l2 1 2 1 0 2 0 2 -2 1 -2 1 -2 -1 -2 -1 0 -2 0 -2 2 -1 2 -1z"/>
     <polygon class="fil4" points="13,9 13,12 10,14 7,15 3,14 0,12 0,9 3,9 3,10 5,11 7,12 8,11 10,10 10,9 "/>
     <polygon class="fil5" points="0,12 0,8 0,4 3,6 3,8 3,10 "/>
     <polygon class="fil5" points="13,4 13,8 13,12 10,10 10,8 10,6 "/>
    </g>
    <g>
     <path class="fil6" d="M20 2c0,-1 -1,-1 -1,-1 0,0 -1,0 -1,0 0,0 0,0 0,1 0,0 0,1 1,1 0,0 1,0 1,0 0,0 1,0 1,1 0,0 1,1 1,1 0,0 0,1 0,1 0,1 0,1 -1,2 0,0 -1,1 -2,1 -1,0 -1,0 -2,-1 0,0 -1,-1 -1,-2l1 0c0,0 0,1 0,1 0,0 1,0 1,0 0,0 1,0 1,0 0,0 0,-1 0,-1 0,-1 0,-1 0,-1 0,0 -1,0 -1,-1 0,0 -1,0 -1,-1 0,0 -1,0 -1,-1 0,0 0,-1 0,-1 0,0 0,-1 1,-1 0,0 1,-1 2,-1 1,0 2,0 2,1l-1 0zm7 -1l1 0 0 5c0,1 0,1 0,2 0,0 -1,1 -1,1 0,0 -1,0 -2,0 -1,0 -1,0 -2,0 0,0 -1,-1 -1,-1 0,0 0,-1 0,-1l0 -5 1 0 0 5c0,1 0,1 0,2 0,0 1,1 1,1 1,0 1,0 1,-1 0,0 0,-1 0,-2l0 -5zm2 0l1 0 2 6 2 -6 1 0 -3 8 -3 -8zm8 0l1 0 0 8 -1 0 0 -8zm2 0l2 0c1,0 1,0 2,0 1,0 1,0 1,1 0,0 1,1 1,1 0,0 0,1 0,2 0,1 0,1 0,2 0,1 -1,1 -1,1 -1,0 -1,1 -2,1l-2 0 0 -8zm1 1l0 6 1 0c1,0 2,0 3,-1 1,-1 1,-1 1,-2 0,-1 0,-2 -1,-2 -1,-1 -2,-1 -3,-1l0 0zm6 -1l1 0 0 3 4 0 0 -3 1 0 0 8 -1 0 0 -4 -4 0 0 4 -1 0 0 -8zm7 0l1 0 0 8 -1 0 0 -8z"/>
     <path class="fil6" d="M18 13c0,0 1,0 1,1 0,0 0,1 0,1 0,0 0,1 0,1 0,0 -1,0 -1,0 0,0 -1,0 -1,0 0,0 0,-1 -1,-1l1 0c0,0 0,1 0,1 0,0 0,0 1,0 0,0 1,0 1,0 0,0 0,0 0,-1 0,0 0,0 0,-1 0,0 0,0 -1,0l-1 0c0,0 -1,0 -1,-1 0,0 0,-1 0,-1 0,0 0,-1 0,-1 0,0 1,0 1,0 0,0 1,0 1,0 0,0 0,0 1,1l-1 0c0,0 0,0 0,0 0,0 0,0 -1,0 0,0 0,0 -1,0 0,0 0,0 0,1 0,0 0,0 0,0 0,0 0,0 1,0l1 0zm2 3l0 -5 1 0 0 5 -1 0zm5 -3l2 0 0 0c0,1 0,2 -1,2 0,0 -1,1 -2,1 0,0 0,0 -1,0 0,0 0,0 -1,0 0,0 -1,-1 -1,-1 0,0 0,-1 0,-1 0,0 0,-1 0,-1 0,0 0,-1 1,-1 0,0 1,0 1,-1 0,0 1,0 1,0 1,0 1,0 1,0 0,0 1,0 1,1l-1 0c0,0 0,-1 -1,-1 0,0 -1,0 -1,0 -1,0 -1,0 -2,1 0,0 -1,1 -1,2 0,1 0,1 1,2 0,0 1,1 2,1 1,0 1,0 1,0 0,0 1,-1 1,-1l-2 0 0 -1zm3 3l0 -6 4 4 0 -4 1 0 0 6 -4 -4 0 4 -1 0zm7 -4l-1 2 2 0 -1 -2zm0 -1l2 6 -1 0 -1 -2 -2 0 -1 2 -1 0 2 -6zm3 6l0 -5 -2 0 0 -1 4 0 0 1 -2 0 0 5 -1 0zm3 -5l1 0 0 3c0,1 0,1 0,1 0,0 1,0 1,0 0,0 1,0 1,0 0,0 0,-1 0,-1l0 -3 1 0 0 3c0,1 0,1 -1,2 0,0 -1,1 -2,1 -1,0 -1,0 -2,-1 0,0 -1,-1 -1,-2l0 -3zm5 5l0 -5 1 0c0,0 1,0 1,0 0,0 0,0 0,0 0,0 0,0 0,1 0,0 0,0 0,1 0,0 0,1 0,1 0,0 -1,0 -1,0l0 0 2 3 -1 0 -2 -3 0 0 0 3 -1 0zm1 -5l0 2 0 0c1,0 1,0 1,0 0,0 0,0 0,-1 0,0 0,-1 0,-1 0,0 -1,0 -1,0l0 0zm3 5l0 -5 3 0 0 1 -2 0 0 2 2 0 0 1 -2 0 0 2 2 0 0 1 -3 0z"/>
    </g>
   </g>
  </g>
 </g>
</svg>
