<svg width="1264" height="665" viewBox="0 0 1264 665" fill="none" xmlns="http://www.w3.org/2000/svg">
<g clip-path="url(#clip0_3805_3)">
<path d="M124.254 273.535H169.437L80.2002 118.782L158.141 -0.953125H111.828L57.6086 86.0245L39.5353 117.653V-0.953125H0V272.405H39.5353V179.78L57.6086 152.67L124.254 272.405V273.535ZM315.153 273.535H359.206L299.339 168.484C330.967 157.188 349.04 127.819 349.04 84.895C349.04 30.6751 319.671 -0.953125 266.581 -0.953125H195.417V272.405H234.953V173.002H259.803L315.153 272.405V273.535ZM234.953 37.4526H265.451C292.561 37.4526 307.246 54.3963 307.246 86.0245C307.246 118.782 292.561 136.856 265.451 136.856H234.953V37.4526ZM516.218 273.535H561.401L472.164 118.782L550.105 -0.953125H503.793L449.573 86.0245L431.5 117.653V-0.953125H391.964V272.405H431.5V179.78L449.573 152.67L516.218 272.405V273.535Z" fill="#727376"/>
<path d="M39.5353 555.923V472.334H126.513V436.188H39.5353V357.117H134.42V319.841H0V593.199H137.809V555.923H39.5353ZM173.955 593.199H212.361V309.675H173.955V593.199ZM275.618 352.599C289.172 352.599 299.339 342.432 299.339 328.877C299.339 315.322 289.172 305.156 275.618 305.156C262.063 305.156 251.896 315.322 251.896 328.877C251.896 342.432 262.063 352.599 275.618 352.599ZM256.415 593.199H294.82V387.616H256.415V593.199ZM417.945 560.441C397.612 560.441 388.576 550.275 388.576 527.684V422.633H426.981V388.745H388.576V340.173H351.299V388.745H321.93V422.633H351.299V527.684C351.299 570.608 375.021 596.588 416.815 596.588H431.5V560.441H419.074H417.945ZM565.92 528.813C562.531 551.405 552.365 561.571 529.773 561.571C509.441 561.571 497.015 549.146 497.015 520.906V505.092H600.937V458.779C600.937 410.207 572.697 381.968 528.643 381.968C485.719 381.968 458.609 410.207 458.609 458.779V519.776C458.609 569.478 485.719 597.717 528.643 597.717C572.697 597.717 599.807 572.867 603.196 528.813H564.79H565.92ZM529.773 418.114C551.235 418.114 563.66 430.54 563.66 458.779V476.852H497.015V458.779C497.015 430.54 509.441 418.114 529.773 418.114Z" fill="#408866"/>
<path d="M693.565 523.169C682.269 516.391 673.233 507.355 666.455 494.929C659.678 483.633 656.289 470.079 656.289 455.394V366.157H720.675L689.047 335.658C678.881 330.011 670.974 322.104 665.326 311.937C659.678 301.771 656.289 288.216 656.289 270.143V75.8551C656.289 64.5593 658.548 54.3931 663.067 45.3564C667.585 35.1902 673.233 27.2831 681.14 20.5057C689.047 13.7282 696.954 8.08028 705.991 3.56196C715.027 -0.956357 725.193 -2.08594 735.36 -2.08594H809.912C824.596 -2.08594 837.022 1.3028 849.447 9.20986C861.873 15.9873 870.909 26.1536 877.687 37.4494L929.647 87.1509C936.425 93.9284 942.073 101.835 946.591 110.872C951.109 119.909 953.369 130.075 953.369 141.371V519.78C953.369 531.076 951.109 541.242 947.721 550.279C943.202 559.315 938.684 567.222 930.777 574C924 580.777 914.963 586.425 905.926 589.814C896.89 594.332 886.723 595.462 876.557 595.462H803.134C781.672 595.462 762.47 587.555 747.785 572.87L694.695 520.91L693.565 523.169ZM763.599 442.969C756.822 439.58 752.303 435.062 750.044 430.543C747.785 426.025 745.526 421.507 745.526 415.859C745.526 410.211 745.526 404.563 745.526 398.915C745.526 393.267 746.655 386.49 746.655 380.842H670.974V454.264C670.974 463.301 673.233 471.208 676.622 479.115C680.01 487.022 684.529 493.8 691.306 499.448C696.954 505.095 703.731 509.614 711.638 513.003C719.546 516.391 727.453 517.521 736.489 517.521H809.912C818.949 517.521 826.856 516.391 834.763 513.003C842.67 509.614 849.447 505.095 855.095 499.448C860.743 493.8 865.261 487.022 868.65 479.115C872.039 471.208 874.298 463.301 874.298 454.264V75.8551C874.298 58.9114 868.65 43.0973 856.225 30.6719C843.799 18.2465 829.115 12.5986 811.042 12.5986H736.489C728.582 12.5986 719.546 13.7282 712.768 17.1169C704.861 20.5057 698.084 25.024 692.436 30.6719C686.788 36.3198 682.269 43.0973 677.751 51.0043C674.362 58.9114 672.103 66.8184 672.103 75.8551V270.143C672.103 288.216 676.622 301.771 685.658 310.808C694.695 319.844 704.861 325.492 717.286 328.881C729.712 332.27 743.267 333.399 759.081 333.399C773.765 333.399 787.32 333.399 799.746 333.399V420.377C799.746 426.025 797.487 430.543 794.098 433.932C790.709 437.321 786.191 440.709 781.672 442.969L774.895 444.098L765.858 442.969H763.599ZM769.247 257.717C763.599 257.717 757.951 255.458 753.433 250.94C748.915 246.422 746.655 241.903 746.655 235.126V112.002C746.655 105.224 748.915 100.706 753.433 96.1875C757.951 91.6692 763.599 89.41 770.377 89.41H776.025C781.672 89.41 787.32 91.6692 791.839 96.1875C796.357 100.706 798.616 106.354 798.616 112.002V257.717H771.506H769.247Z" fill="#408866"/>
<path d="M1006.46 523.169C995.16 516.391 986.123 507.355 979.346 494.929C972.568 483.633 969.18 470.079 969.18 455.394V366.157H1033.57L1001.94 335.658C991.771 330.011 983.864 322.104 978.216 311.937C972.568 301.771 969.18 288.216 969.18 270.143V75.8551C969.18 64.5593 971.439 54.3931 975.957 45.3564C980.475 35.1902 986.123 27.2831 994.03 20.5057C1001.94 13.7282 1009.84 8.08028 1018.88 3.56196C1027.92 -0.956357 1038.08 -2.08594 1048.25 -2.08594H1122.8C1137.49 -2.08594 1149.91 1.3028 1162.34 9.20986C1174.76 15.9873 1183.8 26.1536 1190.58 37.4494L1242.54 87.1509C1249.32 93.9284 1254.96 101.835 1259.48 110.872C1264 119.909 1266.26 130.075 1266.26 141.371V519.78C1266.26 531.076 1264 541.242 1260.61 550.279C1256.09 559.315 1251.57 567.222 1243.67 574C1236.89 580.777 1227.85 586.425 1218.82 589.814C1209.78 594.332 1199.61 595.462 1189.45 595.462H1116.03C1094.56 595.462 1075.36 587.555 1060.68 572.87L1007.59 520.91L1006.46 523.169ZM1076.49 442.969C1069.71 439.58 1065.19 435.062 1062.93 430.543C1060.68 426.025 1058.42 421.507 1058.42 415.859C1058.42 410.211 1058.42 404.563 1058.42 398.915C1058.42 393.267 1059.55 386.49 1059.55 380.842H983.864V454.264C983.864 463.301 986.123 471.208 989.512 479.115C992.901 487.022 997.419 493.8 1004.2 499.448C1009.84 505.095 1016.62 509.614 1024.53 513.003C1032.44 516.391 1040.34 517.521 1049.38 517.521H1122.8C1131.84 517.521 1139.75 516.391 1147.65 513.003C1155.56 509.614 1162.34 505.095 1167.99 499.448C1173.63 493.8 1178.15 487.022 1181.54 479.115C1184.93 471.208 1187.19 463.301 1187.19 454.264V75.8551C1187.19 58.9114 1181.54 43.0973 1169.12 30.6719C1156.69 18.2465 1142.01 12.5986 1123.93 12.5986H1049.38C1041.47 12.5986 1032.44 13.7282 1025.66 17.1169C1017.75 20.5057 1010.97 25.024 1005.33 30.6719C999.678 36.3198 995.16 43.0973 990.642 51.0043C987.253 58.9114 984.994 66.8184 984.994 75.8551V270.143C984.994 288.216 989.512 301.771 998.549 310.808C1007.59 319.844 1017.75 325.492 1030.18 328.881C1042.6 332.27 1056.16 333.399 1071.97 333.399C1086.66 333.399 1100.21 333.399 1112.64 333.399V420.377C1112.64 426.025 1110.38 430.543 1106.99 433.932C1103.6 437.321 1099.08 440.709 1094.56 442.969L1087.79 444.098L1078.75 442.969H1076.49ZM1082.14 257.717C1076.49 257.717 1070.84 255.458 1066.32 250.94C1061.81 246.422 1059.55 241.903 1059.55 235.126V112.002C1059.55 105.224 1061.81 100.706 1066.32 96.1875C1070.84 91.6692 1076.49 89.41 1083.27 89.41H1088.92C1094.56 89.41 1100.21 91.6692 1104.73 96.1875C1109.25 100.706 1111.51 106.354 1111.51 112.002V257.717H1084.4H1082.14Z" fill="#408866"/>
</g>
<defs>
<clipPath id="clip0_3805_3">
<rect width="1264" height="665" fill="white"/>
</clipPath>
</defs>
</svg>
