<?xml version="1.0" encoding="UTF-8"?>
<!DOCTYPE svg PUBLIC "-//W3C//DTD SVG 1.1//EN" "http://www.w3.org/Graphics/SVG/1.1/DTD/svg11.dtd">
<!-- Creator: CorelDRAW X6 -->
<svg xmlns="http://www.w3.org/2000/svg" xml:space="preserve" width="1264px" height="747px" version="1.1" style="shape-rendering:geometricPrecision; text-rendering:geometricPrecision; image-rendering:optimizeQuality; fill-rule:evenodd; clip-rule:evenodd"
viewBox="0 0 1119 661"
 xmlns:xlink="http://www.w3.org/1999/xlink">
 <defs>
  <style type="text/css">
   <![CDATA[
    .fil1 {fill:#408866;fill-rule:nonzero}
    .fil0 {fill:#727376;fill-rule:nonzero}
   ]]>
  </style>
 </defs>
 <g id="_0">
  <metadata id="CorelCorpID_0Corel-Layer"/>
  <path class="fil0" d="M0 660l0 -69 28 0c7,0 12,2 16,6 4,4 6,9 6,15 0,6 -2,11 -6,15 -4,4 -9,6 -16,6l-19 0 0 28 -9 0zm9 -35l18 0c4,0 7,-1 10,-4 3,-2 4,-6 4,-10 0,-4 -1,-7 -4,-10 -3,-2 -6,-4 -10,-4l-18 0 0 26zm52 35l0 -69 28 0c6,0 12,2 16,6 4,4 6,9 6,15 0,3 -1,6 -1,8 -1,3 -2,5 -4,6 -2,2 -4,3 -6,4 -2,1 -4,2 -7,2l19 28 -10 0 -18 -27 -14 0 0 27 -9 0zm9 -35l18 0c4,0 7,-1 10,-4 3,-2 4,-6 4,-10 0,-4 -1,-7 -4,-10 -3,-2 -6,-4 -10,-4l-18 0 0 27zm55 35l0 -69 45 0 0 8 -37 0 0 22 36 0 0 8 -36 0 0 24 37 0 0 8 -45 0zm59 0l0 -69 12 0 22 54 22 -54 12 0 0 69 -9 0 0 -58 -24 58 -4 0 -24 -58 0 58 -9 0zm84 0l0 -69 9 0 0 69 -9 0zm25 -27l0 -42 9 0 0 42c0,6 2,12 5,15 3,4 8,6 15,6 6,0 11,-2 15,-6 3,-4 5,-9 5,-15l0 -42 9 0 0 42c0,9 -2,16 -7,21 -5,5 -12,8 -21,8 -9,0 -16,-3 -21,-8 -5,-5 -7,-12 -7,-21zm73 27l0 -69 12 0 22 54 22 -54 12 0 0 69 -9 0 0 -58 -24 58 -4 0 -24 -58 0 58 -9 0zm111 0l0 -69 9 0 40 54 0 -54 9 0 0 69 -8 0 -40 -55 0 55 -9 0zm66 0l28 -69 11 0 28 69 -10 0 -6 -15 -35 0 -6 15 -10 0zm19 -23l29 0 -15 -37 -15 37zm52 1l0 -7 25 0 0 7 -25 0zm32 4l0 -7 30 -45 12 0 0 44 10 0 0 8 -10 0 0 17 -9 0 0 -17 -33 0zm9 -8l24 0 0 -36 -24 36zm49 8l0 -7 30 -45 12 0 0 44 10 0 0 8 -10 0 0 17 -9 0 0 -17 -33 0zm9 -8l24 0 0 -36 -24 36zm108 25l0 -69 28 0c7,0 12,2 16,6 4,4 6,9 6,15 0,6 -2,11 -6,15 -4,4 -9,6 -16,6l-19 0 0 28 -9 0zm9 -35l18 0c4,0 7,-1 10,-4 3,-2 4,-6 4,-10 0,-4 -1,-7 -4,-10 -3,-2 -6,-4 -10,-4l-18 0 0 26zm51 35l0 -69 9 0 0 62 32 0 0 8 -41 0zm54 -16c-3,-5 -4,-12 -4,-18 0,-7 1,-13 4,-18 3,-5 7,-10 12,-13 5,-3 11,-5 18,-5 7,0 13,2 18,5 5,3 9,7 12,13 3,5 4,12 4,18 0,7 -1,13 -4,18 -3,5 -7,10 -12,13 -5,3 -11,5 -18,5 -7,0 -13,-2 -18,-5 -5,-3 -9,-7 -12,-13zm5 -18c0,5 1,10 3,14 2,4 5,8 9,10 4,2 8,4 13,4 5,0 10,-1 13,-4 4,-2 7,-6 9,-10 2,-4 3,-9 3,-14 0,-8 -2,-15 -7,-20 -5,-5 -11,-8 -19,-8 -8,0 -14,3 -19,8 -5,5 -7,12 -7,20zm69 -27l0 -8 52 0 0 8 -22 0 0 62 -9 0 0 -62 -22 0zm60 52l5 -7c3,3 6,5 9,7 4,2 8,3 12,3 3,0 6,0 8,-1 2,-1 4,-2 5,-3 1,-1 2,-2 3,-4 1,-1 1,-3 1,-4 0,-2 0,-4 -1,-5 -1,-1 -2,-3 -4,-4 -2,-1 -3,-2 -5,-2 -2,-1 -4,-1 -7,-2 -2,-1 -5,-1 -7,-2 -2,-1 -4,-1 -6,-2 -2,-1 -4,-2 -5,-3 -2,-1 -3,-3 -4,-5 -1,-2 -1,-4 -1,-7 0,-6 2,-10 7,-14 5,-4 10,-5 17,-5 10,0 18,3 25,10l-5 6c-5,-6 -12,-8 -20,-8 -4,0 -8,1 -10,3 -3,2 -4,5 -4,8 0,2 0,3 1,4 1,1 2,2 4,3 2,1 3,2 5,2 2,1 4,1 7,2 2,1 5,1 7,2 2,1 4,2 6,3 2,1 4,2 5,4 2,1 3,3 4,5 1,2 1,5 1,7 0,3 0,5 -1,7 -1,2 -2,4 -4,6 -2,2 -5,4 -8,5 -3,1 -7,2 -12,2 -6,0 -11,-1 -15,-3 -4,-2 -8,-5 -11,-8z"/>
  <path class="fil0" d="M110 242l40 0 -79 -137 69 -106 -41 0 -48 77 -16 28 0 -105 -35 0 0 242 35 0 0 -82 16 -24 59 106zm169 0l39 0 -53 -93c28,-10 44,-36 44,-74 0,-48 -26,-76 -73,-76l-63 0 0 242 35 0 0 -88 22 0 49 88zm-71 -209l27 0c24,0 37,15 37,43 0,29 -13,45 -37,45l-27 0 0 -88zm249 209l40 0 -79 -137 69 -106 -41 0 -48 77 -16 28 0 -105 -35 0 0 242 35 0 0 -82 16 -24 59 106z"/>
  <path class="fil1" d="M35 492l0 -74 77 0 0 -32 -77 0 0 -70 84 0 0 -33 -119 0 0 242 122 0 0 -33 -87 0zm119 33l34 0 0 -251 -34 0 0 251zm90 -213c12,0 21,-9 21,-21 0,-12 -9,-21 -21,-21 -12,0 -21,9 -21,21 0,12 9,21 21,21zm-17 213l34 0 0 -182 -34 0 0 182zm143 -29c-18,0 -26,-9 -26,-29l0 -93 34 0 0 -30 -34 0 0 -43 -33 0 0 43 -26 0 0 30 26 0 0 93c0,38 21,61 58,61l13 0 0 -32 -11 0zm131 -28c-3,20 -12,29 -32,29 -18,0 -29,-11 -29,-36l0 -14 92 0 0 -41c0,-43 -25,-68 -64,-68 -38,0 -62,25 -62,68l0 54c0,44 24,69 62,69 39,0 63,-22 66,-61l-34 0zm-32 -98c19,0 30,11 30,36l0 16 -59 0 0 -16c0,-25 11,-36 29,-36z"/>
  <path class="fil1" d="M614 463c-10,-6 -18,-14 -24,-25 -6,-10 -9,-22 -9,-35l0 -79 57 0 -28 -27c-9,-5 -16,-12 -21,-21 -5,-9 -8,-21 -8,-37l0 -172c0,-10 2,-19 6,-27 4,-9 9,-16 16,-22 7,-6 14,-11 22,-15 8,-4 17,-5 26,-5l66 0c13,0 24,3 35,10 11,6 19,15 25,25l46 44c6,6 11,13 15,21 4,8 6,17 6,27l0 335c0,10 -2,19 -5,27 -4,8 -8,15 -15,21 -6,6 -14,11 -22,14 -8,4 -17,5 -26,5l-65 0c-19,0 -36,-7 -49,-20l-47 -46zm62 -71c-6,-3 -10,-7 -12,-11 -2,-4 -4,-8 -4,-13 0,-5 0,-10 0,-15 0,-5 1,-11 1,-16l-67 0 0 65c0,8 2,15 5,22 3,7 7,13 13,18 5,5 11,9 18,12 7,3 14,4 22,4l65 0c8,0 15,-1 22,-4 7,-3 13,-7 18,-12 5,-5 9,-11 12,-18 3,-7 5,-14 5,-22l0 -335c0,-15 -5,-29 -16,-40 -11,-11 -24,-16 -40,-16l-66 0c-7,0 -15,1 -21,4 -7,3 -13,7 -18,12 -5,5 -9,11 -13,18 -3,7 -5,14 -5,22l0 172c0,16 4,28 12,36 8,8 17,13 28,16 11,3 23,4 37,4 13,0 25,0 36,0l0 77c0,5 -2,9 -5,12 -3,3 -7,6 -11,8l-6 1 -8 -1zm5 -164c-5,0 -10,-2 -14,-6 -4,-4 -6,-8 -6,-14l0 -109c0,-6 2,-10 6,-14 4,-4 9,-6 15,-6l5 0c5,0 10,2 14,6 4,4 6,9 6,14l0 129 -24 0z"/>
  <path class="fil1" d="M891 463c-10,-6 -18,-14 -24,-25 -6,-10 -9,-22 -9,-35l0 -79 57 0 -28 -27c-9,-5 -16,-12 -21,-21 -5,-9 -8,-21 -8,-37l0 -172c0,-10 2,-19 6,-27 4,-9 9,-16 16,-22 7,-6 14,-11 22,-15 8,-4 17,-5 26,-5l66 0c13,0 24,3 35,10 11,6 19,15 25,25l46 44c6,6 11,13 15,21 4,8 6,17 6,27l0 335c0,10 -2,19 -5,27 -4,8 -8,15 -15,21 -6,6 -14,11 -22,14 -8,4 -17,5 -26,5l-65 0c-19,0 -36,-7 -49,-20l-47 -46zm62 -71c-6,-3 -10,-7 -12,-11 -2,-4 -4,-8 -4,-13 0,-5 0,-10 0,-15 0,-5 1,-11 1,-16l-67 0 0 65c0,8 2,15 5,22 3,7 7,13 13,18 5,5 11,9 18,12 7,3 14,4 22,4l65 0c8,0 15,-1 22,-4 7,-3 13,-7 18,-12 5,-5 9,-11 12,-18 3,-7 5,-14 5,-22l0 -335c0,-15 -5,-29 -16,-40 -11,-11 -24,-16 -40,-16l-66 0c-7,0 -15,1 -21,4 -7,3 -13,7 -18,12 -5,5 -9,11 -13,18 -3,7 -5,14 -5,22l0 172c0,16 4,28 12,36 8,8 17,13 28,16 11,3 23,4 37,4 13,0 25,0 36,0l0 77c0,5 -2,9 -5,12 -3,3 -7,6 -11,8l-6 1 -8 -1zm5 -164c-5,0 -10,-2 -14,-6 -4,-4 -6,-8 -6,-14l0 -109c0,-6 2,-10 6,-14 4,-4 9,-6 15,-6l5 0c5,0 10,2 14,6 4,4 6,9 6,14l0 129 -24 0z"/>
 </g>
</svg>
