<?xml version="1.0" encoding="UTF-8"?>
<!DOCTYPE svg PUBLIC "-//W3C//DTD SVG 1.1//EN" "http://www.w3.org/Graphics/SVG/1.1/DTD/svg11.dtd">
<!-- Creator: CorelDRAW X6 -->
<svg xmlns="http://www.w3.org/2000/svg" xml:space="preserve" width="3785px" height="754px" version="1.1" style="shape-rendering:geometricPrecision; text-rendering:geometricPrecision; image-rendering:optimizeQuality; fill-rule:evenodd; clip-rule:evenodd"
viewBox="0 0 3795 756"
 xmlns:xlink="http://www.w3.org/1999/xlink">
 <defs>
  <style type="text/css">
   <![CDATA[
    .fil4 {fill:#373435}
    .fil3 {fill:#ED3237}
    .fil11 {fill:#606062}
    .fil1 {fill:#FEFEFE}
    .fil8 {fill:#1D73A2}
    .fil9 {fill:#349CC1}
    .fil7 {fill:#81D4D8}
    .fil6 {fill:#B8DAF5}
    .fil5 {fill:#373435;fill-rule:nonzero}
    .fil17 {fill:#373435;fill-rule:nonzero}
    .fil2 {fill:#606062;fill-rule:nonzero}
    .fil0 {fill:#FEFEFE;fill-rule:nonzero}
    .fil10 {fill:#0B4F73;fill-rule:nonzero}
    .fil15 {fill:url(#id0)}
    .fil16 {fill:url(#id1)}
    .fil13 {fill:url(#id2)}
    .fil14 {fill:url(#id3)}
    .fil12 {fill:url(#id4)}
   ]]>
  </style>
  <linearGradient id="id0" gradientUnits="userSpaceOnUse" x1="2946.33" y1="560.086" x2="3104.75" y2="486.208">
   <stop offset="0" style="stop-color:#8D3393"/>
   <stop offset="1" style="stop-color:#2086C8"/>
  </linearGradient>
  <linearGradient id="id1" gradientUnits="userSpaceOnUse" xlink:href="#id0" x1="2910.6" y1="560.087" x2="3069.02" y2="486.207">
  </linearGradient>
  <linearGradient id="id2" gradientUnits="userSpaceOnUse" xlink:href="#id0" x1="2883.43" y1="417.302" x2="3048.61" y2="324.699">
  </linearGradient>
  <linearGradient id="id3" gradientUnits="userSpaceOnUse" xlink:href="#id0" x1="2743.89" y1="458.948" x2="2812.4" y2="514.141">
  </linearGradient>
  <linearGradient id="id4" gradientUnits="userSpaceOnUse" xlink:href="#id0" x1="2814.38" y1="484.384" x2="2885.27" y2="338.382">
  </linearGradient>
 </defs>
 <g id="Layer_x0020_1">
  <metadata id="CorelCorpID_0Corel-Layer"/>
  <path class="fil0" d="M2350 277l0 -10c2,3 5,5 7,6 2,1 4,2 7,2 3,0 5,-1 6,-2 1,-1 2,-3 2,-5 0,-2 0,-3 -1,-4 -1,-1 -3,-3 -7,-5 -6,-4 -10,-7 -11,-9 -1,-2 -2,-5 -2,-7 0,-4 1,-7 4,-10 3,-3 7,-4 11,-4 2,0 4,0 6,1 2,1 4,1 6,3l0 8c-2,-2 -4,-3 -6,-4 -2,-1 -4,-1 -6,-1 -2,0 -4,1 -6,2 -1,1 -2,3 -2,4 0,3 3,6 9,10l1 1c5,3 8,6 10,8 2,2 2,5 2,9 0,4 -1,7 -4,10 -3,3 -7,4 -11,4 -3,0 -5,0 -8,-1 -2,-1 -4,-2 -6,-4zm36 -40c0,-1 0,-2 1,-3 1,-1 2,-1 3,-1 1,0 2,0 3,1 1,1 1,2 1,3 0,1 0,2 -1,3 -1,1 -2,1 -3,1 -1,0 -2,0 -3,-1 -1,-1 -1,-2 -1,-3zm0 44l0 -34 7 0 0 34 -7 0zm35 -1c-1,1 -2,1 -3,1 -1,0 -3,0 -4,0 -4,0 -7,-1 -8,-3 -2,-2 -2,-5 -2,-10l0 -16 -6 0 0 -1 12 -13 1 0 0 8 11 0 0 6 -11 0 0 16c0,3 0,5 1,5 1,1 2,1 4,1 1,0 2,0 3,0 1,0 2,-1 3,-1l0 6zm36 -3c-2,1 -5,3 -7,3 -2,1 -5,1 -7,1 -5,0 -10,-2 -13,-5 -3,-3 -5,-8 -5,-13 0,-5 2,-9 5,-12 3,-3 7,-5 12,-5 5,0 9,2 12,5 3,3 4,8 4,13l0 1 -26 0c0,3 1,6 3,8 2,2 4,3 8,3 2,0 4,0 7,-1 2,-1 5,-2 7,-4l0 7zm-25 -17l18 0c0,-3 -1,-4 -3,-6 -2,-2 -4,-2 -6,-2 -3,0 -5,1 -6,2 -2,1 -3,3 -3,6zm62 -1l16 0 -8 -19 -8 19zm-17 22l22 -52 5 0 23 52 -8 0 -7 -15 -22 0 -7 15 -8 0zm77 -8l0 -19c-1,-1 -2,-1 -3,-2 -1,0 -2,-1 -4,-1 -3,0 -6,1 -8,3 -2,2 -3,5 -3,9 0,4 1,7 3,9 2,2 5,3 8,3 1,0 3,0 4,-1 1,0 2,-1 3,-2zm0 6c-1,1 -3,2 -4,2 -1,0 -3,1 -5,1 -5,0 -9,-2 -12,-5 -3,-3 -5,-8 -5,-13 0,-5 2,-10 5,-13 3,-3 7,-5 12,-5 2,0 3,0 5,1 1,0 3,1 4,2l0 -19 7 0 0 52 -7 0 0 -2zm39 -6l0 -19c-1,-1 -2,-1 -3,-2 -1,0 -2,-1 -4,-1 -3,0 -6,1 -8,3 -2,2 -3,5 -3,9 0,4 1,7 3,9 2,2 5,3 8,3 1,0 3,0 4,-1 1,0 2,-1 3,-2zm0 6c-1,1 -3,2 -4,2 -1,0 -3,1 -5,1 -5,0 -9,-2 -12,-5 -3,-3 -5,-8 -5,-13 0,-5 2,-10 5,-13 3,-3 7,-5 12,-5 2,0 3,0 5,1 1,0 3,1 4,2l0 -19 7 0 0 52 -7 0 0 -2zm16 2l0 -34 7 0 0 7c2,-3 4,-5 5,-6 2,-1 3,-2 5,-2 1,0 2,0 4,1 1,1 3,1 4,3l-4 6c-1,-1 -2,-2 -3,-2 -1,0 -2,-1 -3,-1 -2,0 -3,1 -5,2 -1,2 -2,4 -3,6l0 19 -7 0zm58 -4c-2,1 -5,3 -7,3 -2,1 -5,1 -7,1 -5,0 -10,-2 -13,-5 -3,-3 -5,-8 -5,-13 0,-5 2,-9 5,-12 3,-3 7,-5 12,-5 5,0 9,2 12,5 3,3 4,8 4,13l0 1 -26 0c0,3 1,6 3,8 2,2 4,3 8,3 2,0 4,0 7,-1 2,-1 5,-2 7,-4l0 7zm-25 -17l18 0c0,-3 -1,-4 -3,-6 -2,-2 -4,-2 -6,-2 -3,0 -5,1 -6,2 -2,1 -3,3 -3,6zm30 18l0 -7c2,1 4,2 6,3 2,1 4,1 5,1 2,0 3,0 4,-1 1,-1 2,-2 2,-3 0,-1 -2,-3 -6,-5 -1,-1 -2,-1 -3,-1 -3,-2 -5,-3 -7,-5 -1,-2 -2,-3 -2,-6 0,-3 1,-5 3,-7 2,-2 5,-3 8,-3 2,0 4,0 6,1 2,0 4,1 5,2l0 7c-2,-1 -4,-2 -6,-3 -2,-1 -3,-1 -5,-1 -1,0 -3,0 -3,1 -1,0 -1,1 -1,2 0,2 2,4 7,6l1 0c4,2 6,4 7,5 1,1 2,3 2,5 0,3 -1,5 -3,7 -2,2 -5,3 -9,3 -2,0 -4,0 -6,-1 -2,0 -4,-1 -6,-2zm28 0l0 -7c2,1 4,2 6,3 2,1 4,1 5,1 2,0 3,0 4,-1 1,-1 2,-2 2,-3 0,-1 -2,-3 -6,-5 -1,-1 -2,-1 -3,-1 -3,-2 -5,-3 -7,-5 -1,-2 -2,-3 -2,-6 0,-3 1,-5 3,-7 2,-2 5,-3 8,-3 2,0 4,0 6,1 2,0 4,1 5,2l0 7c-2,-1 -4,-2 -6,-3 -2,-1 -3,-1 -5,-1 -1,0 -3,0 -3,1 -1,0 -1,1 -1,2 0,2 2,4 7,6l1 0c4,2 6,4 7,5 1,1 2,3 2,5 0,3 -1,5 -3,7 -2,2 -5,3 -9,3 -2,0 -4,0 -6,-1 -2,0 -4,-1 -6,-2zm51 -1c0,-1 0,-2 1,-3 1,-1 2,-1 3,-1 1,0 2,0 3,1 1,1 1,2 1,3 0,1 0,2 -1,3 -1,1 -2,1 -3,1 -1,0 -2,0 -3,-1 -1,-1 -1,-2 -1,-3zm0 -27c0,-1 0,-2 1,-3 1,-1 2,-1 3,-1 1,0 2,0 3,1 1,1 1,2 1,3 0,1 0,2 -1,3 -1,1 -2,1 -3,1 -1,0 -2,0 -3,-1 -1,-1 -1,-2 -1,-3zm83 5l0 22c-3,1 -7,3 -10,3 -3,1 -6,1 -9,1 -3,0 -6,0 -9,-1 -3,-1 -5,-2 -8,-3 -4,-3 -7,-6 -9,-10 -2,-4 -3,-8 -3,-13 0,-3 1,-7 2,-10 1,-3 3,-6 6,-9 3,-3 6,-5 9,-6 3,-1 7,-2 12,-2 3,0 6,0 9,1 3,1 6,2 9,3l0 8c-3,-2 -6,-3 -9,-4 -3,-1 -6,-1 -8,-1 -6,0 -11,2 -15,6 -4,4 -6,8 -6,14 0,6 2,10 6,14 4,4 9,6 15,6 2,0 4,0 5,-1 2,0 4,-1 6,-2l0 -10 -10 0 0 -7 17 0zm31 21c-2,2 -3,3 -5,4 -2,1 -4,1 -5,1 -4,0 -7,-1 -9,-3 -2,-2 -3,-5 -3,-9l0 -23 7 0 0 21c0,3 1,5 2,6 1,1 3,2 5,2 2,0 3,0 5,-1 1,-1 3,-2 4,-3l0 -25 7 0 0 34 -7 0 0 -4zm34 3c-1,1 -2,1 -3,1 -1,0 -3,0 -4,0 -4,0 -7,-1 -8,-3 -2,-2 -2,-5 -2,-10l0 -16 -6 0 0 -1 12 -13 1 0 0 8 11 0 0 6 -11 0 0 16c0,3 0,5 1,5 1,1 2,1 4,1 1,0 2,0 3,0 1,0 2,-1 3,-1l0 6zm26 1l0 -52 6 0 34 40 0 -40 7 0 0 52 -7 0 -34 -40 0 40 -7 0zm63 -17c0,3 1,6 3,8 2,2 5,3 8,3 3,0 6,-1 8,-3 2,-2 3,-5 3,-8 0,-3 -1,-6 -3,-8 -2,-2 -5,-3 -8,-3 -3,0 -6,1 -8,3 -2,2 -3,5 -3,8zm-7 0c0,-5 2,-9 5,-13 4,-3 8,-5 13,-5 2,0 5,0 7,1 2,1 4,2 6,4 2,2 3,4 4,6 1,2 1,4 1,7 0,2 0,5 -1,7 -1,2 -2,4 -4,6 -2,2 -4,3 -6,4 -2,1 -4,1 -7,1 -5,0 -9,-2 -13,-5 -4,-3 -5,-8 -5,-13zm43 13c0,-1 0,-2 1,-3 1,-1 2,-1 3,-1 1,0 2,0 3,1 1,1 1,2 1,3 0,1 0,2 -1,3 -1,1 -2,1 -3,1 -1,0 -2,0 -3,-1 -1,-1 -1,-2 -1,-3zm156 5c-1,-1 -2,-1 -2,-2 -1,-1 -1,-2 -1,-3 0,-1 0,-2 1,-3 1,-1 2,-1 3,-1 1,0 3,1 4,2 1,1 1,3 1,5 0,3 -1,5 -2,7 -2,2 -4,3 -7,4l0 -1c1,-1 2,-2 2,-3 0,-1 1,-2 1,-4l0 -1zm-119 -3l0 -8c2,1 4,2 6,3 2,1 4,1 6,1 3,0 6,-1 8,-3 2,-2 3,-4 3,-7 0,-3 -1,-6 -4,-7 -2,-2 -6,-3 -10,-3 -1,0 -1,0 -2,0 -1,0 -2,0 -3,1l1 -27 23 0 0 6 -16 0 -1 13 1 0c6,0 10,1 13,4 3,3 5,7 5,12 0,5 -2,9 -5,12 -3,3 -8,5 -13,5 -2,0 -4,0 -6,-1 -2,-1 -4,-1 -6,-3zm38 0l0 -8c2,1 4,2 6,3 2,1 4,1 6,1 3,0 6,-1 8,-3 2,-2 3,-4 3,-7 0,-3 -1,-6 -4,-7 -2,-2 -6,-3 -10,-3 -1,0 -1,0 -2,0 -1,0 -2,0 -3,1l1 -27 23 0 0 6 -16 0 -1 13 1 0c6,0 10,1 13,4 3,3 5,7 5,12 0,5 -2,9 -5,12 -3,3 -8,5 -13,5 -2,0 -4,0 -6,-1 -2,-1 -4,-1 -6,-3zm40 0l0 -8c2,1 4,2 6,2 2,1 4,1 5,1 3,0 5,-1 6,-2 2,-1 2,-3 2,-6 0,-3 -1,-5 -3,-6 -2,-1 -5,-2 -8,-2l0 -7c3,0 6,-1 8,-2 2,-1 3,-3 3,-6 0,-2 -1,-4 -3,-5 -2,-1 -4,-2 -7,-2 -1,0 -2,0 -4,1 -1,0 -3,1 -5,2l0 -7c2,-1 3,-1 5,-2 2,0 3,-1 5,-1 5,0 8,1 11,4 3,3 4,6 4,10 0,2 -1,5 -2,7 -1,2 -3,4 -5,5 2,1 4,3 5,5 1,2 2,5 2,7 0,5 -2,9 -5,12 -3,3 -7,5 -12,5 -2,0 -4,0 -5,-1 -2,0 -4,-1 -6,-2zm121 -23l0 22c-3,1 -7,3 -10,3 -3,1 -6,1 -9,1 -3,0 -6,0 -9,-1 -3,-1 -5,-2 -8,-3 -4,-3 -7,-6 -9,-10 -2,-4 -3,-8 -3,-13 0,-3 1,-7 2,-10 1,-3 3,-6 6,-9 3,-3 6,-5 9,-6 3,-1 7,-2 12,-2 3,0 6,0 9,1 3,1 6,2 9,3l0 8c-3,-2 -6,-3 -9,-4 -3,-1 -6,-1 -8,-1 -6,0 -11,2 -15,6 -4,4 -6,8 -6,14 0,6 2,10 6,14 4,4 9,6 15,6 2,0 4,0 5,-1 2,0 4,-1 6,-2l0 -10 -10 0 0 -7 17 0zm25 18l0 -10c-5,1 -8,3 -10,4 -2,1 -3,3 -3,4 0,1 0,2 1,3 1,1 2,1 4,1 1,0 2,0 4,-1 1,0 2,-1 3,-2zm0 4c-2,1 -3,2 -5,3 -2,1 -3,1 -5,1 -3,0 -5,-1 -7,-2 -2,-1 -3,-3 -3,-6 0,-2 1,-5 3,-6 2,-2 5,-3 8,-5l8 -3c0,0 0,0 0,-1 0,0 0,0 0,-1 0,-2 -1,-4 -2,-4 -1,-1 -3,-1 -5,-1 -2,0 -4,0 -6,1 -2,1 -4,2 -6,4l0 -7c2,-1 4,-3 6,-3 2,-1 4,-1 7,-1 4,0 8,1 10,3 2,2 3,5 3,9l0 14c0,1 0,2 0,3 0,1 1,1 1,1 0,0 1,0 1,0 0,0 1,-1 2,-2l0 4c-1,1 -2,2 -4,2 -1,1 -3,1 -4,1 -1,0 -2,0 -3,-1 -1,-1 -1,-1 -1,-3zm16 3l0 -34 7 0 0 4c2,-2 3,-3 5,-4 2,-1 4,-1 5,-1 4,0 7,1 9,3 2,2 3,5 3,9l0 23 -7 0 0 -21c0,-3 -1,-5 -2,-6 -1,-1 -3,-2 -5,-2 -2,0 -3,0 -5,1 -1,1 -3,2 -4,3l0 25 -7 0zm61 -8l0 -19c-1,-1 -2,-1 -3,-2 -1,0 -2,-1 -4,-1 -3,0 -6,1 -8,3 -2,2 -3,5 -3,9 0,4 1,7 3,9 2,2 5,3 8,3 1,0 3,0 4,-1 1,0 2,-1 3,-2zm0 6c-1,1 -3,2 -4,2 -1,0 -3,1 -5,1 -5,0 -9,-2 -12,-5 -3,-3 -5,-8 -5,-13 0,-5 2,-10 5,-13 3,-3 7,-5 12,-5 2,0 3,0 5,1 1,0 3,1 4,2l0 -19 7 0 0 52 -7 0 0 -2zm16 2l0 -52 7 0 0 22c2,-2 3,-3 5,-4 2,-1 4,-1 5,-1 4,0 7,1 9,3 2,2 3,5 3,9l0 23 -7 0 0 -21c0,-3 -1,-5 -2,-6 -1,-1 -3,-2 -5,-2 -2,0 -3,0 -5,1 -1,1 -3,2 -4,3l0 25 -7 0zm68 -4c-2,1 -5,3 -7,3 -2,1 -5,1 -7,1 -5,0 -10,-2 -13,-5 -3,-3 -5,-8 -5,-13 0,-5 2,-9 5,-12 3,-3 7,-5 12,-5 5,0 9,2 12,5 3,3 4,8 4,13l0 1 -26 0c0,3 1,6 3,8 2,2 4,3 8,3 2,0 4,0 7,-1 2,-1 5,-2 7,-4l0 7zm-25 -17l18 0c0,-3 -1,-4 -3,-6 -2,-2 -4,-2 -6,-2 -3,0 -5,1 -6,2 -2,1 -3,3 -3,6zm32 21l0 -52 7 0 0 52 -7 0zm16 -44c0,-1 0,-2 1,-3 1,-1 2,-1 3,-1 1,0 2,0 3,1 1,1 1,2 1,3 0,1 0,2 -1,3 -1,1 -2,1 -3,1 -1,0 -2,0 -3,-1 -1,-1 -1,-2 -1,-3zm0 44l0 -34 7 0 0 34 -7 0z"/>
  <path class="fil1" d="M89 0l3617 0c49,0 89,40 89,89l0 578c0,49 -40,89 -89,89l-3617 0c-49,0 -89,-40 -89,-89l0 -578c0,-49 40,-89 89,-89z"/>
  <path class="fil2" d="M1669 183l0 -62 25 0c6,0 11,2 14,5 4,4 5,8 5,13 0,5 -2,10 -5,13 -4,4 -8,5 -14,5l-17 0 0 25 -8 0zm8 -32l16 0c4,0 7,-1 9,-3 2,-2 3,-5 3,-9 0,-4 -1,-6 -3,-9 -2,-2 -5,-3 -9,-3l-16 0 0 24zm47 32l0 -62 25 0c6,0 10,2 14,5 4,3 5,8 5,14 0,3 0,5 -1,7 -1,2 -2,4 -4,6 -2,1 -3,3 -5,4 -2,1 -4,1 -6,2l17 25 -9 0 -16 -25 -12 0 0 25 -8 0zm8 -32l16 0c4,0 7,-1 9,-3 2,-2 4,-5 4,-9 0,-4 -1,-6 -3,-9 -2,-2 -5,-3 -9,-3l-16 0 0 24zm50 17c-3,-5 -4,-10 -4,-16 0,-6 1,-12 4,-16 3,-5 6,-9 11,-12 5,-3 10,-4 16,-4 6,0 11,1 16,4 5,3 8,7 11,12 3,5 4,10 4,16 0,6 -1,12 -4,16 -3,5 -6,9 -11,12 -5,3 -10,4 -16,4 -6,0 -11,-1 -16,-4 -5,-3 -8,-7 -11,-12zm4 -16c0,5 1,9 3,13 2,4 5,7 8,9 3,2 8,3 12,3 5,0 9,-1 12,-3 4,-2 6,-5 8,-9 2,-4 3,-8 3,-13 0,-7 -2,-13 -6,-18 -4,-5 -10,-7 -17,-7 -7,0 -12,2 -17,7 -4,5 -6,11 -6,18zm60 25l4 -6c3,4 7,6 12,6 4,0 7,-1 9,-4 2,-2 3,-6 3,-9l0 -43 8 0 0 43c0,4 -1,8 -3,11 -2,3 -4,5 -7,7 -3,1 -6,2 -10,2 -7,0 -12,-2 -16,-7zm51 6l0 -62 41 0 0 7 -33 0 0 20 32 0 0 7 -32 0 0 21 33 0 0 7 -41 0zm53 -18c-2,-4 -2,-8 -2,-13 0,-5 1,-9 2,-13 2,-4 4,-7 7,-10 3,-3 6,-5 10,-7 4,-2 8,-2 13,-2 10,0 18,4 24,12l-6 4c-2,-3 -4,-5 -7,-7 -3,-2 -6,-2 -10,-2 -7,0 -13,2 -17,7 -5,5 -7,11 -7,18 0,5 1,9 3,13 2,4 5,7 9,9 4,2 8,3 12,3 3,0 7,-1 10,-3 3,-2 6,-4 7,-7l7 4c-6,8 -14,12 -24,12 -4,0 -9,-1 -13,-2 -4,-2 -7,-4 -10,-7 -3,-3 -5,-6 -7,-10zm59 -37l0 -7 47 0 0 7 -20 0 0 55 -8 0 0 -55 -20 0zm82 55l0 -62 28 0c5,0 10,1 13,4 3,3 5,7 5,11 0,4 -1,7 -3,9 -2,3 -5,4 -8,5 3,1 6,2 9,5 2,3 4,6 4,10 0,5 -2,9 -5,12 -3,3 -8,5 -13,5l-28 0zm8 -7l19 0c4,0 6,-1 8,-3 2,-2 3,-5 3,-8 0,-3 -1,-6 -3,-8 -2,-2 -5,-3 -8,-3l-19 0 0 21zm0 -28l19 0c3,0 6,-1 8,-3 2,-2 3,-4 3,-7 0,-3 -1,-5 -3,-7 -2,-2 -5,-3 -8,-3l-19 0 0 20zm44 -27l9 0 19 29 19 -29 9 0 -24 36 0 26 -8 0 0 -26 -25 -36z"/>
  <polygon class="fil3" points="423,335 501,335 501,531 345,531 410,505 455,482 481,456 500,422 498,395 494,380 483,366 467,353 432,340 "/>
  <path class="fil4" d="M323 331l22 16c62,-17 168,-9 151,74 -23,61 -78,82 -143,89 -50,-1 -73,-25 -54,-55 27,-36 113,-59 201,-65l0 -3c-55,-6 -100,-18 -143,-32l49 44c-66,17 -98,21 -144,64 -15,27 -14,50 20,62 12,4 23,6 36,6l0 0 188 0 0 -142c5,0 9,0 14,-1 -5,0 -9,-1 -14,-1l0 -58 -98 0c-28,-4 -57,-4 -83,0zm39 197c19,-5 40,-12 61,-23 37,-16 65,-51 75,-79l0 102 -137 0zm137 -142c-9,-24 -35,-40 -66,-49l66 0 0 49z"/>
  <path class="fil4" d="M248 542l8 0c5,0 8,0 10,1 2,0 3,1 4,2 1,1 1,2 2,3 0,1 0,4 0,7l0 14c0,3 0,6 0,7 0,1 -1,2 -2,3 -1,1 -2,1 -3,1 -1,0 -3,0 -5,0l-13 0 0 -39zm10 7l0 25c1,0 2,0 3,-1 0,-1 0,-2 0,-5l0 -15c0,-2 0,-3 0,-3 0,0 0,-1 -1,-1 0,0 -1,0 -2,0zm27 -7l0 39 -10 0 0 -39 10 0zm25 12l-9 0 0 -3c0,-1 0,-2 0,-3 0,0 -1,-1 -1,-1 -1,0 -1,0 -1,1 0,0 0,1 0,2 0,1 0,2 1,3 0,1 1,1 3,2 5,3 7,5 9,7 1,2 2,4 2,8 0,3 0,5 -1,6 -1,1 -2,2 -4,3 -2,1 -4,1 -6,1 -3,0 -5,-1 -7,-2 -2,-1 -3,-2 -4,-4 -1,-2 -1,-4 -1,-7l0 -3 9 0 0 5c0,1 0,2 0,3 0,0 1,1 1,1 1,0 1,0 2,-1 0,-1 0,-1 0,-2 0,-2 0,-4 -1,-4 -1,-1 -2,-2 -5,-4 -3,-2 -4,-3 -5,-4 -1,-1 -1,-2 -2,-3 -1,-1 -1,-3 -1,-5 0,-3 0,-5 1,-7 1,-1 2,-2 4,-3 2,-1 4,-1 6,-1 3,0 5,0 7,1 2,1 3,2 4,3 1,1 1,3 1,7l0 2zm27 -12l0 39 -10 0 0 -16 -3 0 0 16 -10 0 0 -39 10 0 0 14 3 0 0 -14 10 0zm22 0l6 39 -10 0 -1 -7 -4 0 -1 7 -10 0 5 -39 15 0zm-5 25c-1,-4 -1,-10 -2,-16 -1,7 -2,13 -2,16l3 0zm45 -11l-10 0 0 -4c0,-2 0,-4 0,-4 0,-1 -1,-1 -1,-1 -1,0 -1,0 -1,1 0,0 0,2 0,4l0 19c0,2 0,3 0,3 0,1 1,1 1,1 1,0 1,0 2,-1 0,-1 0,-2 0,-4l0 -5 -2 0 0 -6 12 0 0 21 -6 0 -1 -3c-1,1 -2,2 -3,3 -1,1 -2,1 -4,1 -2,0 -3,0 -5,-1 -1,-1 -3,-2 -3,-3 -1,-1 -1,-2 -1,-4 0,-1 0,-3 0,-6l0 -12c0,-4 0,-6 1,-8 0,-2 2,-3 3,-5 2,-1 4,-2 7,-2 3,0 5,1 7,2 2,1 3,3 4,4 1,2 1,4 1,7l0 2zm4 -14l7 0c5,0 8,0 10,1 2,0 3,1 4,3 1,2 2,4 2,7 0,3 0,5 -1,6 -1,1 -2,2 -4,2 2,0 3,1 4,2 1,1 1,2 1,2 0,1 0,3 0,6l0 10 -9 0 0 -13c0,-2 0,-3 0,-4 0,0 -1,-1 -3,-1l0 17 -10 0 0 -39zm10 7l0 9c1,0 2,0 2,0 0,0 1,-1 1,-3l0 -2c0,-1 0,-2 -1,-2 0,0 -1,-1 -2,-1zm39 16c0,4 0,7 0,8 0,2 -1,3 -2,4 -1,1 -2,2 -4,3 -2,1 -4,1 -6,1 -2,0 -4,0 -6,-1 -2,-1 -3,-2 -4,-3 -1,-1 -2,-3 -2,-4 0,-2 0,-4 0,-8l0 -7c0,-4 0,-7 0,-8 0,-2 1,-3 2,-4 1,-1 2,-2 4,-3 2,-1 4,-1 6,-1 2,0 4,0 6,1 2,1 3,2 4,3 1,1 2,3 2,4 0,2 0,4 0,8l0 7zm-10 -13c0,-2 0,-3 0,-3 0,0 -1,-1 -1,-1 -1,0 -1,0 -1,1 0,0 0,2 0,4l0 18c0,2 0,4 0,4 0,1 1,1 1,1 1,0 1,0 1,-1 0,-1 0,-2 0,-4l0 -18zm37 -10l0 26c0,3 0,5 0,6 0,1 -1,2 -2,4 -1,1 -2,2 -4,3 -2,1 -3,1 -5,1 -2,0 -4,0 -6,-1 -2,-1 -3,-2 -4,-3 -1,-1 -1,-3 -2,-4 0,-1 0,-4 0,-9l0 -23 10 0 0 29c0,2 0,3 0,3 0,0 1,1 1,1 1,0 1,0 1,-1 0,-1 0,-2 0,-4l0 -29 10 0zm4 0l10 0c3,0 5,0 6,1 1,0 3,1 3,2 1,1 1,2 2,3 0,1 0,3 0,5l0 3c0,2 0,4 -1,5 -1,1 -1,2 -3,3 -1,1 -3,1 -5,1l-3 0 0 16 -10 0 0 -39zm10 7l0 10c0,0 1,0 1,0 1,0 2,0 2,-1 0,0 1,-1 1,-3l0 -3c0,-1 0,-2 -1,-3 0,0 -1,-1 -3,-1z"/>
  <path class="fil4" d="M326 312l2 0c0,0 0,0 0,0 0,1 0,2 0,2 0,0 0,1 1,1 1,0 3,0 7,0 3,0 5,0 6,0 1,0 2,-1 2,-3 0,-1 0,-1 0,-2 0,0 0,-1 -1,-1 0,0 -1,0 -2,0 -1,0 -3,0 -8,0 -1,0 -3,0 -4,0 -1,0 -2,-1 -2,-1 -1,-1 -1,-2 -1,-3 0,-2 0,-3 1,-4 0,0 1,-1 1,-1 1,0 1,0 2,0 2,0 3,0 6,0 2,0 4,0 5,0 1,0 2,1 3,1 1,0 1,1 1,1 0,1 0,1 0,3l-2 0c0,0 0,0 0,0 0,-1 0,-1 0,-2 0,0 -1,-1 -2,-1 -1,0 -2,0 -4,0 -2,0 -4,0 -5,0 -1,0 -2,0 -2,1 0,0 -1,1 -1,2 0,1 0,1 0,2 0,0 1,1 1,1 1,0 2,0 5,0 1,0 3,0 6,0 1,0 2,0 3,0 1,0 1,1 2,1 1,1 1,2 1,3 0,1 0,2 -1,3 -1,1 -2,1 -3,2 -1,0 -4,0 -8,0 -2,0 -3,0 -4,0 -1,0 -2,0 -2,-1 -1,0 -1,-1 -1,-1 0,-1 0,-1 0,-3 0,0 0,0 0,-1zm22 -12l2 0 0 18 -2 0 0 -18zm5 0l4 0 16 16 1 0 0 -16 2 0 0 18 -4 0 -16 -16 -1 0 0 16 -2 0 0 -18zm44 12l2 0c0,2 0,3 0,3 0,1 -1,2 -3,2 -1,0 -3,0 -6,0 -4,0 -7,0 -8,0 -1,0 -2,-1 -3,-2 0,-1 -1,-3 -1,-6 0,-3 0,-5 1,-6 0,-2 2,-2 3,-3 2,0 4,0 7,0 3,0 5,0 7,0 1,0 1,0 2,1 0,0 1,1 1,2 0,1 0,2 0,3l-2 0c0,0 0,-1 0,-1 0,-1 0,-1 0,-2 0,0 0,-1 -1,-1 -1,0 -3,-1 -6,-1 -2,0 -4,0 -5,0 -1,0 -2,0 -2,1 0,0 -1,1 -1,2 0,1 0,2 0,4 0,1 0,2 0,3 0,1 0,2 0,2 0,1 0,1 1,2 0,0 1,0 2,1 1,0 3,0 6,0 1,0 2,0 3,0 1,0 2,0 2,0 1,0 1,0 1,0 0,0 1,0 1,-1 0,0 0,-1 0,-3zm4 6l0 -18 18 0 0 2 -15 0 0 5 15 0 0 2 -15 0 0 6 15 0 0 2 -18 0zm35 -18l4 0 0 18 -2 0 0 -16 -1 0 -6 5 -1 -2 6 -6zm10 13l2 0c0,1 0,1 0,2 0,0 0,1 1,1 0,0 1,1 2,1 1,0 2,0 4,0 2,0 4,0 5,0 1,0 2,0 3,-1 0,0 1,0 1,-1 0,0 0,-1 0,-2 0,-1 0,-2 0,-3 0,0 0,0 0,-1 0,1 -1,1 -2,1 0,0 -1,0 -2,0 -1,0 -2,0 -4,0 -2,0 -4,0 -5,0 -1,0 -2,0 -2,-1 -1,0 -1,-1 -1,-2 0,-1 0,-2 0,-3 0,-1 0,-2 1,-3 0,-1 1,-1 1,-1 1,0 1,-1 2,-1 1,0 3,0 5,0 3,0 5,0 7,0 1,0 2,1 3,1 0,0 1,1 1,2 0,1 0,2 0,4 0,3 0,6 0,7 0,1 -1,2 -1,2 -1,0 -2,1 -3,1 -1,0 -3,0 -6,0 -2,0 -4,0 -5,0 -1,0 -2,-1 -2,-1 0,0 -1,-1 -1,-1 0,-1 0,-1 0,-2zm11 -11c-3,0 -6,0 -7,0 -1,0 -1,0 -2,1 0,0 0,1 0,2 0,1 0,2 1,3 0,0 1,0 2,1 1,0 3,0 6,0 2,0 3,0 4,0 1,0 1,0 2,0 0,0 1,-1 1,-1 0,0 0,-1 0,-2 0,-1 0,-2 0,-2 0,0 -1,-1 -1,-1 -1,0 -2,0 -4,0zm11 11l2 0c0,1 0,1 0,2 0,0 0,1 1,1 0,0 1,1 2,1 1,0 2,0 4,0 2,0 4,0 5,0 1,0 2,0 3,-1 0,0 1,0 1,-1 0,0 0,-1 0,-2 0,-1 0,-2 0,-3 0,0 0,0 0,-1 0,1 -1,1 -2,1 0,0 -1,0 -2,0 -1,0 -2,0 -4,0 -2,0 -4,0 -5,0 -1,0 -2,0 -2,-1 -1,0 -1,-1 -1,-2 0,-1 0,-2 0,-3 0,-1 0,-2 1,-3 0,-1 1,-1 1,-1 1,0 1,-1 2,-1 1,0 3,0 5,0 3,0 5,0 7,0 1,0 2,1 3,1 0,0 1,1 1,2 0,1 0,2 0,4 0,3 0,6 0,7 0,1 -1,2 -1,2 -1,0 -2,1 -3,1 -1,0 -3,0 -6,0 -2,0 -4,0 -5,0 -1,0 -2,-1 -2,-1 0,0 -1,-1 -1,-1 0,-1 0,-1 0,-2zm11 -11c-3,0 -6,0 -7,0 -1,0 -1,0 -2,1 0,0 0,1 0,2 0,1 0,2 1,3 0,0 1,0 2,1 1,0 3,0 6,0 2,0 3,0 4,0 1,0 1,0 2,0 0,0 1,-1 1,-1 0,0 0,-1 0,-2 0,-1 0,-2 0,-2 0,0 -1,-1 -1,-1 -1,0 -2,0 -4,0zm19 -2l4 0 0 18 -2 0 0 -16 -1 0 -6 5 -1 -2 6 -6z"/>
  <path class="fil5" d="M568 332l23 0c15,0 25,1 30,2 5,2 9,4 12,8 3,4 4,8 5,12 1,4 1,13 1,26l0 48c0,12 0,21 -1,25 -1,4 -3,7 -5,10 -2,2 -5,4 -9,5 -4,1 -9,1 -16,1l-38 0 0 -138zm30 24l0 91c4,0 7,-1 8,-3 1,-2 2,-8 2,-17l0 -54c0,-6 0,-10 0,-12 0,-2 -1,-3 -2,-4 -1,-1 -3,-1 -7,-1z"/>
  <polygon class="fil5" points="680,332 680,470 650,470 650,332 "/>
  <path class="fil5" d="M756 373l-28 0 0 -10c0,-5 0,-8 -1,-9 -1,-1 -2,-2 -4,-2 -2,0 -3,1 -4,3 -1,2 -1,4 -1,8 0,5 1,8 2,10 1,2 4,5 9,8 13,9 22,17 25,23 4,6 5,16 5,29 0,10 -1,17 -3,22 -2,5 -6,9 -11,12 -6,3 -12,5 -19,5 -8,0 -15,-2 -21,-5 -6,-4 -10,-8 -11,-14 -2,-6 -3,-14 -3,-24l0 -9 28 0 0 17c0,5 0,8 1,10 1,1 2,2 4,2 2,0 4,-1 4,-3 1,-2 1,-5 1,-8 0,-8 -1,-13 -3,-16 -2,-3 -7,-7 -14,-13 -8,-6 -13,-10 -15,-13 -2,-3 -4,-6 -6,-11 -2,-5 -2,-11 -2,-18 0,-11 1,-18 3,-23 2,-5 6,-9 11,-11 5,-3 11,-4 18,-4 8,0 15,2 20,5 6,3 9,7 11,11 2,5 3,12 3,23l0 5z"/>
  <polygon class="fil5" points="838,332 838,470 808,470 808,412 799,412 799,470 768,470 768,332 799,332 799,381 808,381 808,332 "/>
  <path class="fil5" d="M902 332l17 138 -31 0 -1 -25 -11 0 -2 25 -31 0 15 -138 44 0zm-16 89c-2,-16 -3,-35 -5,-58 -3,26 -5,46 -6,58l10 0z"/>
  <path class="fil5" d="M1020 383l-30 0 0 -13c0,-8 0,-13 -1,-15 -1,-2 -2,-3 -4,-3 -2,0 -3,1 -4,3 -1,2 -1,6 -1,13l0 66c0,6 0,10 1,12 1,2 2,3 4,3 2,0 4,-1 5,-3 1,-2 1,-7 1,-13l0 -16 -6 0 0 -21 35 0 0 74 -19 0 -3 -10c-2,4 -5,7 -8,10 -3,2 -7,3 -11,3 -5,0 -10,-1 -14,-4 -4,-3 -8,-7 -10,-11 -2,-4 -4,-9 -4,-14 -1,-5 -1,-12 -1,-21l0 -41c0,-13 1,-23 2,-29 1,-6 5,-11 10,-16 6,-5 13,-7 22,-7 9,0 16,2 22,6 6,4 10,9 11,15 2,6 3,15 3,26l0 6z"/>
  <path class="fil5" d="M1032 332l21 0c14,0 24,1 29,2 5,1 9,5 12,10 3,5 5,14 5,26 0,11 -1,18 -3,22 -2,4 -7,6 -13,7 6,2 10,4 12,7 2,3 3,6 4,8 1,2 1,9 1,20l0 36 -28 0 0 -46c0,-7 -1,-12 -1,-14 -1,-2 -4,-3 -8,-3l0 62 -30 0 0 -138zm30 24l0 31c3,0 6,-1 7,-2 1,-1 2,-5 2,-11l0 -8c0,-4 -1,-7 -2,-9 -1,-1 -4,-2 -7,-2z"/>
  <path class="fil5" d="M1180 413c0,14 0,24 -1,29 -1,6 -2,11 -5,16 -3,5 -7,8 -12,11 -5,3 -11,4 -17,4 -6,0 -12,-1 -17,-4 -5,-2 -9,-6 -12,-11 -3,-5 -5,-10 -5,-16 -1,-6 -1,-16 -1,-30l0 -24c0,-14 0,-24 1,-29 1,-6 2,-11 5,-16 3,-5 7,-8 12,-11 5,-3 11,-4 17,-4 6,0 12,1 17,4 5,2 9,6 12,11 3,5 5,10 5,16 1,6 1,16 1,30l0 24zm-30 -45c0,-6 0,-11 -1,-12 -1,-2 -2,-3 -4,-3 -2,0 -3,1 -4,2 -1,1 -1,6 -1,13l0 64c0,8 0,13 1,15 1,2 2,3 4,3 2,0 3,-1 4,-3 1,-2 1,-7 1,-15l0 -63z"/>
  <path class="fil5" d="M1261 332l0 92c0,10 0,18 -1,22 -1,4 -2,9 -5,13 -3,4 -7,8 -11,10 -5,2 -10,3 -16,3 -7,0 -13,-1 -18,-4 -5,-3 -9,-6 -12,-11 -3,-4 -4,-9 -5,-14 0,-5 -1,-15 -1,-31l0 -82 30 0 0 104c0,6 0,10 1,12 1,2 2,3 3,3 2,0 3,-1 4,-3 1,-2 1,-6 1,-13l0 -102 30 0z"/>
  <path class="fil5" d="M1272 332l30 0c8,0 15,1 19,2 4,2 8,4 10,7 2,3 4,6 5,11 1,4 1,11 1,19l0 12c0,9 -1,15 -2,19 -2,4 -4,7 -8,9 -4,2 -9,3 -16,3l-8 0 0 56 -30 0 0 -138zm30 24l0 35c1,0 2,0 2,0 3,0 5,-1 6,-2 1,-2 2,-5 2,-10l0 -11c0,-5 -1,-8 -2,-9 -1,-1 -4,-2 -8,-2z"/>
  <path class="fil5" d="M600 534c0,1 -1,2 -2,2 -2,0 -4,2 -7,4 -3,3 -6,7 -8,11 -3,6 -5,12 -7,20 -1,5 -3,8 -4,8 0,0 -2,-1 -4,-2 -1,-3 -2,-7 -4,-12 -1,-6 -2,-10 -2,-12 0,-6 1,-11 2,-15 0,-1 1,-1 2,-2 1,-1 1,-1 2,-1 0,0 1,0 2,1 1,1 1,1 2,1 0,2 1,3 1,3 0,0 -1,1 -2,3 -2,3 -2,6 -2,10 0,3 1,7 2,10 1,-3 3,-6 4,-9 3,-6 6,-11 9,-15 4,-5 8,-8 11,-8 2,0 4,0 6,1 0,0 0,0 0,0 0,0 0,1 0,1zm53 30c0,3 -3,6 -8,10 -5,4 -9,6 -11,6 0,0 -1,0 -1,0 0,0 -1,0 -1,0 -1,0 -3,-1 -5,-2 -2,-1 -3,-3 -3,-4 -1,-3 -2,-6 -2,-9 0,-1 0,-2 0,-3 -3,3 -6,6 -9,9 -4,3 -8,5 -11,5 -1,0 -2,-1 -3,-3 -1,-2 -2,-4 -2,-5 0,-5 4,-11 11,-19 7,-8 13,-12 17,-12 1,0 2,0 3,1 0,1 1,2 1,3 0,-1 1,-2 2,-3 1,-2 2,-3 3,-3 1,0 2,1 3,2 0,1 0,3 -1,5 -1,2 -3,4 -3,6 -1,2 -2,5 -2,9 -1,3 -1,5 -1,6 0,3 1,5 2,7 1,3 3,4 6,4 2,0 5,-1 8,-3 3,-2 6,-4 8,-6l1 0zm-29 -17c0,0 -1,0 -2,-1 -1,0 -1,-1 -2,-1 -1,0 -3,1 -5,3 -1,1 -3,3 -4,4 -2,2 -3,4 -5,7 -2,3 -3,5 -3,7 0,0 0,0 1,0 0,0 1,0 1,0 1,0 4,-2 9,-7 4,-4 7,-7 8,-8 1,-2 2,-4 3,-6zm54 -46c-2,6 -6,16 -11,32 -6,18 -10,30 -10,35 0,2 0,3 1,5 1,2 1,3 1,3 0,1 -1,2 -2,2l-2 0c-2,0 -3,-1 -4,-4 -1,-2 -1,-4 -1,-5 0,-4 1,-8 2,-13 3,-10 6,-21 11,-33 3,-8 5,-16 6,-24 0,-1 1,-2 2,-3 1,-1 2,-2 3,-2 1,0 2,1 3,2l1 4zm45 68c-1,2 -3,4 -6,6 -3,3 -7,4 -9,4 -3,0 -6,-1 -8,-4 -2,-3 -3,-6 -3,-10 0,-1 0,-2 0,-3 -3,3 -5,6 -8,9 -3,3 -6,5 -8,5 -5,0 -7,-3 -7,-10 0,-3 2,-8 6,-17 4,-9 7,-14 8,-14 1,0 2,1 2,3 1,2 1,3 1,4 0,0 -2,3 -5,10 -4,7 -5,12 -6,16 0,0 0,0 0,1 3,-1 8,-6 14,-15 1,-1 3,-4 5,-7 1,-2 2,-3 3,-5 1,-2 3,-3 4,-3 0,0 1,1 2,3 1,1 1,2 1,2 0,-1 -1,2 -3,7 -2,6 -3,10 -4,13 0,1 0,3 1,4 1,2 2,3 4,3 2,0 4,-1 7,-3 4,-2 6,-3 7,-3l0 2zm32 -28c0,4 -3,9 -10,15 -7,6 -13,9 -18,10 0,2 1,5 3,6 2,1 3,2 5,2 2,0 5,-1 9,-3 5,-2 7,-3 7,-3 1,0 2,0 3,1 -1,2 -4,4 -9,7 -5,3 -9,4 -11,4 -4,0 -8,-2 -10,-5 -2,-3 -3,-6 -3,-10 0,-6 3,-13 9,-20 6,-8 12,-11 18,-11 2,0 3,1 5,2 2,2 2,3 2,5zm-7 2c-1,-1 -1,-1 -1,-1 -3,0 -7,2 -11,6 -3,4 -6,7 -7,10 2,0 4,-1 6,-2 1,-1 3,-2 6,-4 3,-2 5,-5 7,-9zm87 6c0,7 -3,14 -9,21 -6,7 -12,11 -18,11l-4 0c-1,0 -3,-1 -5,-3 -2,-2 -2,-3 -3,-5 0,-3 1,-7 4,-12 3,-5 6,-8 9,-9 1,0 1,0 1,1 0,1 0,2 -1,3 -5,5 -7,11 -7,16 1,1 1,1 2,1 0,0 1,0 1,0 0,0 1,0 1,0 2,0 4,-1 7,-2 4,-2 7,-5 11,-10 4,-5 5,-9 5,-13 0,-3 -1,-5 -3,-7 -2,-2 -4,-2 -6,-2 -2,0 -5,3 -9,7 -4,5 -6,7 -6,7 -1,0 -2,0 -3,-1 -1,-1 -1,-2 -1,-3 0,-1 4,-10 12,-27 1,-4 3,-9 6,-17 0,-2 1,-4 2,-7 1,0 2,-1 4,-2 2,1 3,3 3,4 0,2 0,3 -1,5 -4,7 -8,16 -13,27 2,-1 5,-1 9,-1 3,0 6,2 9,6 2,4 3,7 3,11zm64 16c0,3 -3,6 -8,10 -5,4 -9,6 -11,6 0,0 -1,0 -1,0 0,0 -1,0 -1,0 -1,0 -3,-1 -5,-2 -2,-1 -3,-3 -3,-4 -1,-3 -2,-6 -2,-9 0,-1 0,-2 0,-3 -3,3 -6,6 -9,9 -4,3 -8,5 -11,5 -1,0 -2,-1 -3,-3 -1,-2 -2,-4 -2,-5 0,-5 4,-11 11,-19 7,-8 13,-12 17,-12 1,0 2,0 3,1 0,1 1,2 1,3 0,-1 1,-2 2,-3 1,-2 2,-3 3,-3 1,0 2,1 3,2 0,1 0,3 -1,5 -1,2 -3,4 -3,6 -1,2 -2,5 -2,9 -1,3 -1,5 -1,6 0,3 1,5 2,7 1,3 3,4 6,4 2,0 5,-1 8,-3 3,-2 6,-4 8,-6l1 0zm-29 -17c0,0 -1,0 -2,-1 -1,0 -1,-1 -2,-1 -1,0 -3,1 -5,3 -1,1 -3,3 -4,4 -2,2 -3,4 -5,7 -2,3 -3,5 -3,7 0,0 0,0 1,0 0,0 1,0 1,0 1,0 4,-2 9,-7 4,-4 7,-7 8,-8 1,-2 2,-4 3,-6zm55 -9c0,0 0,1 -1,2 0,1 -1,1 -1,2 0,0 -1,-1 -2,-2 -1,0 -1,-2 -2,-4 0,-1 -1,-1 -2,-1 -2,0 -3,1 -4,3 0,0 0,2 -1,5 0,1 1,5 2,12 1,7 2,12 1,15 0,4 -2,7 -4,10 -3,4 -7,5 -11,5 -3,0 -5,-1 -6,-2 -2,-1 -2,-3 -2,-6 0,-1 0,-2 0,-3 1,-3 2,-6 4,-7 1,-1 2,-1 3,-2 1,0 2,0 3,0 -1,1 -1,3 -2,4 -1,3 -2,5 -2,6 0,2 1,3 3,3 2,0 4,-1 6,-4 2,-3 3,-5 3,-8 0,0 -1,-4 -2,-11 -1,-7 -2,-11 -2,-11 0,-1 0,-1 0,-2 0,-4 1,-7 3,-10 2,-3 4,-5 7,-4 3,0 5,2 7,5 1,3 2,5 2,8zm40 3c0,4 -3,9 -10,15 -7,6 -13,9 -18,10 0,2 1,5 3,6 2,1 3,2 5,2 2,0 5,-1 9,-3 5,-2 7,-3 7,-3 1,0 2,0 3,1 -1,2 -4,4 -9,7 -5,3 -9,4 -11,4 -4,0 -8,-2 -10,-5 -2,-3 -3,-6 -3,-10 0,-6 3,-13 9,-20 6,-8 12,-11 18,-11 2,0 3,1 5,2 2,2 2,3 2,5zm-7 2c-1,-1 -1,-1 -1,-1 -3,0 -7,2 -11,6 -3,4 -6,7 -7,10 2,0 4,-1 6,-2 1,-1 3,-2 6,-4 3,-2 5,-5 7,-9zm77 20c0,0 0,1 0,1 0,1 -1,3 -3,6 -1,1 -3,3 -5,6 -3,2 -6,4 -8,5 -1,0 -2,0 -4,0 -2,0 -4,-1 -4,-1 -4,-3 -7,-9 -7,-17 0,-3 0,-5 1,-7 -2,4 -5,9 -10,14 -6,7 -11,10 -15,11 -1,0 -2,-1 -4,-3 -2,-2 -3,-3 -3,-4 0,-5 3,-13 10,-22 7,-10 14,-16 19,-16 1,0 2,0 2,0 0,0 1,1 2,3 3,-5 5,-11 8,-16 4,-9 8,-14 11,-17 1,1 2,1 2,1 0,0 0,1 1,2 0,1 1,1 1,2 0,0 0,0 0,0 -2,3 -6,10 -11,21 -2,4 -4,9 -6,15 -2,7 -3,13 -3,16 0,3 0,5 1,6 1,3 3,5 5,5 2,0 5,-1 9,-4 3,-2 6,-4 9,-7 0,0 1,0 1,0zm-33 -19c0,-1 0,-1 -1,-1 -1,0 -3,0 -4,2 -1,1 -2,2 -4,3 -2,1 -4,5 -8,10 -4,6 -6,10 -6,12 0,0 0,1 1,1 2,0 5,-2 8,-5 2,-3 5,-5 6,-8 1,-2 3,-4 4,-6 3,-4 4,-6 4,-7zm101 -4c0,0 0,1 -1,4 -2,1 -4,0 -5,-1 0,0 0,-1 -1,-2 0,-2 -1,-2 -1,-3 -3,0 -7,4 -12,10 -5,6 -7,12 -7,17 0,2 1,4 2,6 1,2 3,2 6,2 3,0 5,0 7,-1 1,-1 2,-1 4,-2 1,0 2,-1 2,-1 0,0 1,0 1,0 0,0 1,-1 1,-1 0,0 1,0 1,0 0,0 1,0 1,1 0,0 -1,1 -2,3 -1,2 -2,3 -3,4 -5,3 -9,5 -12,5 -4,0 -8,-1 -10,-4 -2,-3 -4,-6 -4,-11 0,-6 2,-12 7,-19 4,-7 9,-11 14,-14 1,-1 2,-1 2,-3 2,-1 3,-1 4,-1 2,0 4,2 5,5 1,3 2,5 2,7zm57 28c-1,2 -3,4 -6,6 -3,3 -7,4 -9,4 -3,0 -6,-1 -8,-4 -2,-3 -3,-6 -3,-10 0,-1 0,-2 0,-3 -3,3 -5,6 -8,9 -3,3 -6,5 -8,5 -5,0 -7,-3 -7,-10 0,-3 2,-8 6,-17 4,-9 7,-14 8,-14 1,0 2,1 2,3 1,2 1,3 1,4 0,0 -2,3 -5,10 -4,7 -5,12 -6,16 0,0 0,0 0,1 3,-1 8,-6 14,-15 1,-1 3,-4 5,-7 1,-2 2,-3 3,-5 1,-2 3,-3 4,-3 0,0 1,1 2,3 1,1 1,2 1,2 0,-1 -1,2 -3,7 -2,6 -3,10 -4,13 0,1 0,3 1,4 1,2 2,3 4,3 2,0 4,-1 7,-3 4,-2 6,-3 7,-3l0 2zm29 -68c-2,6 -6,16 -11,32 -6,18 -10,30 -10,35 0,2 0,3 1,5 1,2 1,3 1,3 0,1 -1,2 -2,2l-2 0c-2,0 -3,-1 -4,-4 -1,-2 -1,-4 -1,-5 0,-4 1,-8 2,-13 3,-10 6,-21 11,-33 3,-8 5,-16 6,-24 0,-1 1,-2 2,-3 1,-1 2,-2 3,-2 1,0 2,1 3,2l1 4zm34 36c0,0 0,1 0,1 0,0 0,1 0,1 0,1 0,1 -1,2 -7,1 -12,3 -15,4 -3,1 -5,3 -8,4 0,1 0,3 -1,5 -1,2 -1,4 -1,5 0,0 0,1 0,2 0,1 0,2 0,2 0,1 -1,4 -2,8 -1,5 -3,8 -4,8 -1,0 -3,-1 -4,-4 -1,-2 -1,-4 -1,-5 0,0 1,-3 2,-8 2,-5 2,-8 2,-8 0,0 0,-1 -1,-2 0,-1 -1,-1 -1,-2 -1,-2 -1,-4 -1,-6 0,-1 1,-1 2,-3 1,-1 2,-2 2,-2 0,0 1,0 1,0 0,0 1,0 1,0 1,0 2,-3 4,-9 1,-3 2,-6 3,-9 2,-5 4,-12 7,-21 1,-1 1,-2 2,-2 1,0 1,-1 1,-1l2 0c0,0 0,1 1,3 1,1 1,3 1,4 0,2 -2,7 -6,15 -4,9 -7,15 -7,18l1 1c3,-1 5,-1 8,-1 4,0 8,-1 11,-1zm45 32c-1,2 -3,4 -6,6 -3,3 -7,4 -9,4 -3,0 -6,-1 -8,-4 -2,-3 -3,-6 -3,-10 0,-1 0,-2 0,-3 -3,3 -5,6 -8,9 -3,3 -6,5 -8,5 -5,0 -7,-3 -7,-10 0,-3 2,-8 6,-17 4,-9 7,-14 8,-14 1,0 2,1 2,3 1,2 1,3 1,4 0,0 -2,3 -5,10 -4,7 -5,12 -6,16 0,0 0,0 0,1 3,-1 8,-6 14,-15 1,-1 3,-4 5,-7 1,-2 2,-3 3,-5 1,-2 3,-3 4,-3 0,0 1,1 2,3 1,1 1,2 1,2 0,-1 -1,2 -3,7 -2,6 -3,10 -4,13 0,1 0,3 1,4 1,2 2,3 4,3 2,0 4,-1 7,-3 4,-2 6,-3 7,-3l0 2zm30 -24c0,1 0,3 -1,5 -1,2 -2,3 -3,4 -1,-1 -1,-2 -1,-3 0,-1 0,-2 0,-2 0,-1 0,-2 0,-3 0,-1 0,-2 0,-3 0,-2 -1,-2 -2,-2 -2,0 -5,3 -9,8 -4,6 -7,12 -8,18 0,2 -1,4 -1,6 -1,3 -1,4 -3,5 -1,0 -2,-1 -3,-2 -2,-1 -2,-3 -2,-4 0,0 0,-2 1,-6 1,-5 3,-11 5,-18 1,-4 1,-6 2,-7 1,-2 2,-4 3,-5 1,0 1,1 2,2 0,2 1,2 1,3 2,-2 4,-4 6,-6 3,-2 5,-3 8,-3 2,0 3,1 3,2 1,2 1,6 1,11zm39 -4c0,4 -3,9 -10,15 -7,6 -13,9 -18,10 0,2 1,5 3,6 2,1 3,2 5,2 2,0 5,-1 9,-3 5,-2 7,-3 7,-3 1,0 2,0 3,1 -1,2 -4,4 -9,7 -5,3 -9,4 -11,4 -4,0 -8,-2 -10,-5 -2,-3 -3,-6 -3,-10 0,-6 3,-13 9,-20 6,-8 12,-11 18,-11 2,0 3,1 5,2 2,2 2,3 2,5zm-7 2c-1,-1 -1,-1 -1,-1 -3,0 -7,2 -11,6 -3,4 -6,7 -7,10 2,0 4,-1 6,-2 1,-1 3,-2 6,-4 3,-2 5,-5 7,-9z"/>
  <polygon class="fil1" points="1542,361 1708,361 1708,527 1542,527 "/>
  <polygon class="fil6" points="1492,527 1492,379 1620,453 1620,601 "/>
  <polygon class="fil6" points="1748,527 1748,379 1620,453 1620,601 "/>
  <path class="fil7" d="M1620 305l64 37 64 37 0 74 0 74 -64 37 -64 37 -64 -37 -64 -37 0 -74 0 -74 64 -37 64 -37zm0 74l32 19 32 19 0 37 0 37 -32 19 -32 19 -32 -19 -32 -19 0 -37 0 -37 32 -19 32 -19z"/>
  <polygon class="fil8" points="1748,474 1748,527 1684,564 1620,601 1556,564 1492,527 1492,474 1556,474 1556,490 1588,508 1620,527 1652,508 1684,490 1684,474 "/>
  <polygon class="fil9" points="1492,527 1492,453 1492,379 1556,416 1556,453 1556,490 "/>
  <polygon class="fil9" points="1748,379 1748,453 1748,527 1684,490 1684,453 1684,416 "/>
  <path class="fil10" d="M1883 353c-5,-9 -13,-14 -24,-14 -7,0 -12,2 -17,6 -5,4 -7,9 -7,14 0,8 4,15 14,19 4,2 9,4 16,6 7,3 13,6 19,10 6,4 11,9 13,15 3,6 4,12 4,19 0,13 -4,23 -13,32 -9,8 -20,13 -32,13 -11,0 -21,-4 -30,-11 -9,-8 -14,-17 -15,-30l18 -4c0,9 3,16 9,21 6,5 12,7 19,7 6,0 12,-2 17,-6 5,-4 8,-10 9,-18 1,-9 0,-16 -6,-21 -5,-5 -13,-9 -23,-13 -8,-3 -15,-7 -20,-10 -5,-3 -9,-7 -13,-12 -3,-5 -5,-11 -5,-18 0,-9 4,-17 12,-25 8,-8 18,-11 31,-11 16,0 29,7 37,22l-14 9zm125 -28l18 0 0 92c0,11 -2,21 -7,29 -4,8 -11,15 -19,20 -8,5 -17,7 -28,7 -12,0 -22,-3 -30,-8 -8,-6 -14,-13 -17,-21 -4,-8 -6,-17 -6,-26l0 -93 18 0 0 89c0,11 3,21 8,30 5,9 14,13 27,13 12,0 21,-4 27,-12 6,-8 9,-19 9,-32l0 -87zm28 0l20 0 43 107 43 -107 20 0 -63 153 -63 -153zm138 0l18 0 0 145 -18 0 0 -145zm44 0l30 0c10,0 20,1 29,4 9,2 18,6 26,12 8,6 14,13 19,22 5,9 7,20 8,33 0,13 -2,25 -8,37 -6,11 -14,20 -26,27 -12,7 -27,11 -46,11l-32 0 0 -145zm18 17l0 112 11 0c21,0 37,-5 48,-16 11,-10 17,-24 16,-41 0,-18 -6,-31 -18,-41 -12,-10 -28,-15 -49,-15l-9 0zm110 -17l18 0 0 58 69 0 0 -58 18 0 0 145 -18 0 0 -70 -69 0 0 70 -18 0 0 -145zm131 0l18 0 0 145 -18 0 0 -145z"/>
  <path class="fil10" d="M1823 509l10 0 24 62 24 -62 10 0 -29 72 -11 0 -29 -72zm99 72l0 -72 47 0 0 8 -38 0 0 23 37 0 0 8 -37 0 0 25 38 0 0 8 -47 0zm82 0l0 -72 9 0 42 56 0 -56 9 0 0 72 -9 0 -42 -58 0 58 -9 0zm92 -64l0 -8 55 0 0 8 -23 0 0 64 -9 0 0 -64 -23 0zm87 36l0 -44 9 0 0 44c0,7 2,12 5,16 4,4 9,6 15,6 7,0 12,-2 15,-6 4,-4 5,-9 5,-16l0 -44 9 0 0 44c0,9 -3,16 -8,22 -5,5 -12,8 -22,8 -10,0 -17,-3 -22,-8 -5,-5 -8,-12 -8,-22zm96 28l0 -72 29 0c7,0 12,2 16,6 4,4 6,9 6,16 0,3 -1,6 -2,9 -1,3 -2,5 -4,7 -2,2 -4,3 -6,4 -2,1 -5,2 -7,2l20 29 -11 0 -18 -29 -14 0 0 29 -9 0zm9 -37l19 0c4,0 8,-1 10,-4 3,-3 4,-6 4,-10 0,-4 -1,-7 -4,-10 -3,-3 -6,-4 -10,-4l-19 0 0 28zm77 37l0 -72 47 0 0 8 -38 0 0 23 37 0 0 8 -37 0 0 25 38 0 0 8 -47 0zm77 -10l5 -7c3,3 6,6 10,7 4,2 8,3 13,3 3,0 6,0 8,-1 2,-1 4,-2 5,-3 1,-1 2,-3 3,-4 1,-1 1,-3 1,-4 0,-2 0,-4 -1,-5 -1,-1 -2,-3 -4,-4 -2,-1 -4,-2 -6,-2 -2,-1 -4,-1 -7,-2 -2,-1 -5,-1 -7,-2 -2,-1 -5,-2 -7,-3 -2,-1 -4,-2 -6,-4 -2,-1 -3,-3 -4,-5 -1,-2 -1,-5 -1,-7 0,-6 2,-11 7,-14 5,-4 11,-6 18,-6 11,0 19,3 26,10l-5 7c-5,-6 -12,-9 -21,-9 -4,0 -8,1 -11,3 -3,2 -4,5 -4,8 0,2 0,3 1,5 1,1 2,2 4,3 2,1 4,2 6,2 2,1 4,1 7,2 2,1 5,1 7,2 2,1 5,2 7,3 2,1 4,2 6,4 2,1 3,3 4,6 1,2 1,5 1,8 0,3 0,5 -1,8 -1,2 -2,5 -4,7 -2,2 -5,4 -8,5 -4,1 -8,2 -12,2 -6,0 -11,-1 -16,-3 -5,-2 -9,-5 -12,-8z"/>
  <polygon class="fil11" points="1429,305 1422,305 1422,568 1429,568 "/>
  <polygon class="fil11" points="2624,305 2618,305 2618,568 2624,568 "/>
  <polygon class="fil12" points="2817,290 2882,290 2882,471 2817,532 "/>
  <polygon class="fil13" points="2976,291 3045,292 2954,433 2970,450 2898,451 2887,433 "/>
  <polygon class="fil14" points="2746,534 2811,534 2811,501 2746,439 "/>
  <polygon class="fil15" points="2973,458 3102,588 3073,588 2949,458 "/>
  <polygon class="fil16" points="2938,458 3067,588 3038,588 2913,458 "/>
  <path class="fil17" d="M3059 321l0 60c0,9 0,15 0,17 0,3 -1,5 -3,7 -2,2 -4,4 -6,4 -3,1 -6,1 -12,1l-12 0 0 -16c1,0 2,0 3,0 2,0 3,0 4,-1 1,-1 1,-2 2,-3 0,-1 0,-3 0,-7l0 -63 23 0zm65 0l-13 41 15 49 -24 0 -9 -38 0 38 -23 0 0 -90 23 0 0 35 11 -35 22 0zm-93 98l24 0c6,0 11,0 15,1 3,1 6,2 8,4 2,2 3,4 4,7 1,3 1,7 1,12l0 8c0,6 -1,10 -2,13 -1,3 -3,5 -6,6 -3,1 -7,2 -12,2l-6 0 0 36 -23 0 0 -90zm23 15l0 23c1,0 1,0 2,0 2,0 4,-1 4,-2 1,-1 1,-3 1,-7l0 -7c0,-3 0,-5 -1,-6 -1,-1 -3,-1 -6,-1zm34 -15l17 0c11,0 18,0 22,1 4,1 7,3 10,7 2,3 4,9 4,17 0,7 -1,12 -3,14 -2,2 -5,4 -10,4 5,1 8,3 9,5 2,2 3,4 3,5 0,2 1,6 1,13l0 24 -22 0 0 -30c0,-5 0,-8 -1,-9 -1,-1 -3,-2 -6,-2l0 41 -23 0 0 -90zm23 15l0 20c3,0 4,0 5,-1 1,-1 2,-3 2,-7l0 -5c0,-3 -1,-5 -2,-6 -1,-1 -3,-1 -6,-1zm91 37c0,9 0,15 -1,19 0,4 -2,7 -4,10 -2,3 -5,5 -9,7 -4,2 -8,3 -13,3 -5,0 -9,-1 -13,-2 -4,-2 -7,-4 -9,-7 -2,-3 -4,-7 -4,-10 0,-4 -1,-10 -1,-19l0 -15c0,-9 0,-15 1,-19 0,-4 2,-7 4,-10 2,-3 5,-5 9,-7 4,-2 8,-2 13,-2 5,0 9,1 13,2 4,2 7,4 9,7 2,3 4,7 4,10 0,4 1,10 1,19l0 15zm-23 -29c0,-4 0,-7 -1,-8 0,-1 -1,-2 -3,-2 -1,0 -2,0 -3,1 -1,1 -1,4 -1,8l0 42c0,5 0,8 1,10 0,1 1,2 3,2 2,0 3,-1 3,-2 0,-1 1,-5 1,-10l0 -41zm32 -23l24 0c6,0 11,0 15,1 3,1 6,2 8,4 2,2 3,4 3,7 1,3 1,7 1,12l0 8c0,6 -1,10 -2,13 -1,3 -3,5 -6,6 -3,1 -7,2 -12,2l-6 0 0 36 -23 0 0 -90zm23 15l0 23c1,0 1,0 2,0 2,0 4,-1 4,-2 1,-1 1,-3 1,-7l0 -7c0,-3 0,-5 -1,-6 -1,-1 -3,-1 -6,-1zm34 -15l39 0 0 18 -16 0 0 17 15 0 0 17 -15 0 0 20 17 0 0 18 -41 0 0 -90zm47 0l17 0c11,0 18,0 22,1 4,1 7,3 10,7 2,3 4,9 4,17 0,7 -1,12 -3,14 -2,2 -5,4 -10,4 5,1 8,3 9,5 2,2 3,4 3,5 0,2 1,6 1,13l0 24 -22 0 0 -30c0,-5 0,-8 -1,-9 -1,-1 -3,-2 -6,-2l0 41 -23 0 0 -90zm23 15l0 20c3,0 4,0 5,-1 1,-1 2,-3 2,-7l0 -5c0,-3 -1,-5 -2,-6 -1,-1 -3,-1 -6,-1zm85 -15l0 18 -14 0 0 72 -23 0 0 -72 -14 0 0 -18 51 0zm29 0l0 90 -23 0 0 -90 23 0zm9 0l39 0 0 18 -16 0 0 17 15 0 0 17 -15 0 0 20 17 0 0 18 -41 0 0 -90zm97 27l-22 0 0 -7c0,-3 0,-5 -1,-6 -1,-1 -1,-1 -3,-1 -1,0 -2,1 -3,2 -1,1 -1,3 -1,5 0,3 0,5 1,7 1,1 3,3 7,5 10,6 17,11 20,15 3,4 4,10 4,19 0,6 -1,11 -2,14 -1,3 -4,6 -9,8 -4,2 -9,3 -15,3 -6,0 -12,-1 -16,-4 -4,-2 -7,-5 -9,-9 -1,-4 -2,-9 -2,-16l0 -6 22 0 0 11c0,3 0,6 1,6 1,1 2,1 3,1 2,0 3,-1 3,-2 1,-1 1,-3 1,-5 0,-5 -1,-9 -2,-10 -1,-2 -5,-4 -11,-8 -6,-4 -10,-7 -12,-8 -2,-2 -3,-4 -5,-7 -1,-3 -2,-7 -2,-12 0,-7 1,-12 3,-15 2,-3 5,-6 8,-7 4,-2 9,-3 14,-3 6,0 11,1 15,3 4,2 7,4 8,7 1,3 2,8 2,15l0 4z"/>
 </g>
</svg>
